<svg width="20" height="20" viewBox="0 0 20 20" fill="none" xmlns="http://www.w3.org/2000/svg">
<path d="M16.1082 4.73333L10.8832 1.91667C10.3332 1.61667 9.66657 1.61667 9.11657 1.91667L3.89157 4.73333C3.50824 4.94167 3.2749 5.34167 3.2749 5.8C3.2749 6.25 3.50824 6.65833 3.89157 6.86667L9.11657 9.68333C9.39157 9.83333 9.6999 9.90833 9.9999 9.90833C10.2999 9.90833 10.6082 9.83333 10.8832 9.68333L16.1082 6.86667C16.4916 6.65833 16.7249 6.25833 16.7249 5.8C16.7249 5.34167 16.4916 4.94167 16.1082 4.73333Z" fill="#667085"/>
<path d="M8.25842 10.6583L3.39175 8.22499C3.01675 8.04166 2.58341 8.05833 2.23341 8.275C1.87508 8.5 1.66675 8.87499 1.66675 9.29166V13.8833C1.66675 14.675 2.10841 15.3917 2.81675 15.75L7.67508 18.1833C7.84175 18.2667 8.02508 18.3083 8.20842 18.3083C8.42508 18.3083 8.64175 18.25 8.83342 18.1333C9.19175 17.9167 9.40008 17.5333 9.40008 17.1167V12.525C9.40842 11.725 8.96675 11.0083 8.25842 10.6583Z" fill="#667085"/>
<path d="M17.7668 8.275C17.4084 8.05833 16.9751 8.03333 16.6084 8.22499L11.7501 10.6583C11.0418 11.0167 10.6001 11.725 10.6001 12.525V17.1167C10.6001 17.5333 10.8084 17.9167 11.1668 18.1333C11.3584 18.25 11.5751 18.3083 11.7918 18.3083C11.9751 18.3083 12.1584 18.2667 12.3251 18.1833L17.1834 15.75C17.8918 15.3917 18.3334 14.6833 18.3334 13.8833V9.29166C18.3334 8.87499 18.1251 8.5 17.7668 8.275Z" fill="#667085"/>
</svg>
