<svg width="16" height="17" viewBox="0 0 16 17" fill="none" xmlns="http://www.w3.org/2000/svg">
<path d="M5.3335 4.33334C5.06016 4.33334 4.8335 4.10668 4.8335 3.83334V1.83334C4.8335 1.56001 5.06016 1.33334 5.3335 1.33334C5.60683 1.33334 5.8335 1.56001 5.8335 1.83334V3.83334C5.8335 4.10668 5.60683 4.33334 5.3335 4.33334Z" fill="#0080FC"/>
<path d="M10.6665 4.33334C10.3932 4.33334 10.1665 4.10668 10.1665 3.83334V1.83334C10.1665 1.56001 10.3932 1.33334 10.6665 1.33334C10.9398 1.33334 11.1665 1.56001 11.1665 1.83334V3.83334C11.1665 4.10668 10.9398 4.33334 10.6665 4.33334Z" fill="#0080FC"/>
<path d="M10 15.6667H6C2.25333 15.6667 1.5 13.9 1.5 11.0467V6.93334C1.5 3.77334 2.56667 2.48668 5.30667 2.33334H10.6667C10.6733 2.33334 10.6867 2.33334 10.6933 2.33334C13.4333 2.48668 14.5 3.77334 14.5 6.93334V11.0467C14.5 13.9 13.7467 15.6667 10 15.6667ZM5.33333 3.33334C3.46667 3.44001 2.5 4.02668 2.5 6.93334V11.0467C2.5 13.6 2.98667 14.6667 6 14.6667H10C13.0133 14.6667 13.5 13.6 13.5 11.0467V6.93334C13.5 4.03334 12.54 3.44001 10.6533 3.33334H5.33333Z" fill="#0080FC"/>
<path d="M13.8332 12.7333H2.1665C1.89317 12.7333 1.6665 12.5067 1.6665 12.2333C1.6665 11.96 1.89317 11.7333 2.1665 11.7333H13.8332C14.1065 11.7333 14.3332 11.96 14.3332 12.2333C14.3332 12.5067 14.1065 12.7333 13.8332 12.7333Z" fill="#0080FC"/>
<path d="M8.00016 6C7.18016 6 6.48683 6.44667 6.48683 7.31333C6.48683 7.72667 6.68016 8.04 6.9735 8.24C6.56683 8.48 6.3335 8.86667 6.3335 9.32C6.3335 10.1467 6.96683 10.66 8.00016 10.66C9.02683 10.66 9.66683 10.1467 9.66683 9.32C9.66683 8.86667 9.4335 8.47333 9.02016 8.24C9.32016 8.03333 9.50683 7.72667 9.50683 7.31333C9.50683 6.44667 8.82016 6 8.00016 6ZM8.00016 7.89333C7.6535 7.89333 7.40016 7.68667 7.40016 7.36C7.40016 7.02667 7.6535 6.83333 8.00016 6.83333C8.34683 6.83333 8.60016 7.02667 8.60016 7.36C8.60016 7.68667 8.34683 7.89333 8.00016 7.89333ZM8.00016 9.83333C7.56016 9.83333 7.24016 9.61333 7.24016 9.21333C7.24016 8.81333 7.56016 8.6 8.00016 8.6C8.44016 8.6 8.76016 8.82 8.76016 9.21333C8.76016 9.61333 8.44016 9.83333 8.00016 9.83333Z" fill="#0080FC"/>
</svg>
