<svg width="18" height="18" viewBox="0 0 18 18" fill="none" xmlns="http://www.w3.org/2000/svg">
<path d="M14.9775 6.5625H12.7725C11.82 6.5625 11.25 5.9925 11.25 5.04V2.835C11.25 1.8825 11.82 1.3125 12.7725 1.3125H14.9775C15.93 1.3125 16.5 1.8825 16.5 2.835V5.04C16.5 5.9925 15.93 6.5625 14.9775 6.5625ZM15.1425 4.08C15.0525 3.99 14.9325 3.945 14.8125 3.945C14.6925 3.945 14.5725 3.99 14.4825 4.08L14.3475 4.215V2.535C14.3475 2.2725 14.1375 2.0625 13.875 2.0625C13.6125 2.0625 13.4025 2.2725 13.4025 2.535V4.215L13.2675 4.08C13.0875 3.9 12.7875 3.9 12.6075 4.08C12.4275 4.26 12.4275 4.56 12.6075 4.74L13.545 5.6775C13.5825 5.715 13.635 5.745 13.6875 5.7675C13.7025 5.775 13.7175 5.775 13.7325 5.7825C13.77 5.7975 13.8075 5.805 13.8525 5.805C13.8675 5.805 13.8825 5.805 13.8975 5.805C13.95 5.805 13.995 5.7975 14.0475 5.775C14.055 5.775 14.055 5.775 14.0625 5.775C14.115 5.7525 14.16 5.7225 14.1975 5.685C14.205 5.6775 14.205 5.6775 14.2125 5.6775L15.15 4.74C15.33 4.56 15.33 4.26 15.1425 4.08Z" fill="#667085"/>
<path d="M1.5 8.595V12.345C1.5 14.0625 2.8875 15.45 4.605 15.45H13.3875C15.105 15.45 16.5 14.055 16.5 12.3375V8.595C16.5 8.0925 16.095 7.6875 15.5925 7.6875H2.4075C1.905 7.6875 1.5 8.0925 1.5 8.595ZM6 12.9375H4.5C4.1925 12.9375 3.9375 12.6825 3.9375 12.375C3.9375 12.0675 4.1925 11.8125 4.5 11.8125H6C6.3075 11.8125 6.5625 12.0675 6.5625 12.375C6.5625 12.6825 6.3075 12.9375 6 12.9375ZM10.875 12.9375H7.875C7.5675 12.9375 7.3125 12.6825 7.3125 12.375C7.3125 12.0675 7.5675 11.8125 7.875 11.8125H10.875C11.1825 11.8125 11.4375 12.0675 11.4375 12.375C11.4375 12.6825 11.1825 12.9375 10.875 12.9375Z" fill="#667085"/>
<path d="M10.125 3.4575V5.655C10.125 6.1575 9.72 6.5625 9.2175 6.5625H2.4075C1.8975 6.5625 1.5 6.1425 1.5 5.64C1.5075 4.7925 1.845 4.02 2.4075 3.4575C2.97 2.895 3.75 2.55 4.605 2.55H9.2175C9.72 2.55 10.125 2.955 10.125 3.4575Z" fill="#667085"/>
</svg>
