<svg width="19" height="20" viewBox="0 0 19 20" fill="none" xmlns="http://www.w3.org/2000/svg">
<path d="M11.875 2.08334V10C11.875 10.8708 11.1625 11.5833 10.2917 11.5833H1.58337V5.25001C1.58337 3.50043 3.00046 2.08334 4.75004 2.08334H11.875Z" stroke="#667085" stroke-width="1.1875" stroke-linecap="round" stroke-linejoin="round"/>
<path d="M17.4167 11.5833V13.9583C17.4167 15.2725 16.3559 16.3333 15.0417 16.3333H14.25C14.25 15.4625 13.5375 14.75 12.6667 14.75C11.7959 14.75 11.0834 15.4625 11.0834 16.3333H7.91671C7.91671 15.4625 7.20421 14.75 6.33337 14.75C5.46254 14.75 4.75004 15.4625 4.75004 16.3333H3.95837C2.64421 16.3333 1.58337 15.2725 1.58337 13.9583V11.5833H10.2917C11.1625 11.5833 11.875 10.8708 11.875 10V4.45834H13.3317C13.9017 4.45834 14.4242 4.7671 14.7092 5.25793L16.063 7.62501H15.0417C14.6063 7.62501 14.25 7.98126 14.25 8.41668V10.7917C14.25 11.2271 14.6063 11.5833 15.0417 11.5833H17.4167Z" stroke="#667085" stroke-width="1.1875" stroke-linecap="round" stroke-linejoin="round"/>
<path d="M6.33333 17.9167C7.20778 17.9167 7.91667 17.2078 7.91667 16.3333C7.91667 15.4589 7.20778 14.75 6.33333 14.75C5.45888 14.75 4.75 15.4589 4.75 16.3333C4.75 17.2078 5.45888 17.9167 6.33333 17.9167Z" stroke="#667085" stroke-width="1.1875" stroke-linecap="round" stroke-linejoin="round"/>
<path d="M12.6667 17.9167C13.5412 17.9167 14.25 17.2078 14.25 16.3333C14.25 15.4589 13.5412 14.75 12.6667 14.75C11.7923 14.75 11.0834 15.4589 11.0834 16.3333C11.0834 17.2078 11.7923 17.9167 12.6667 17.9167Z" stroke="#667085" stroke-width="1.1875" stroke-linecap="round" stroke-linejoin="round"/>
<path d="M17.4167 10V11.5833H15.0417C14.6062 11.5833 14.25 11.2271 14.25 10.7917V8.41667C14.25 7.98125 14.6062 7.625 15.0417 7.625H16.0629L17.4167 10Z" stroke="#667085" stroke-width="1.1875" stroke-linecap="round" stroke-linejoin="round"/>
</svg>
