<svg width="19" height="20" viewBox="0 0 19 20" fill="none" xmlns="http://www.w3.org/2000/svg">
<path d="M14.2817 11.2272C13.9492 11.5518 13.7592 12.0189 13.8067 12.5176C13.878 13.3726 14.6617 13.998 15.5167 13.998H17.0209V14.9401C17.0209 16.5789 15.683 17.9168 14.0442 17.9168H4.95591C3.31716 17.9168 1.97925 16.5789 1.97925 14.9401V9.61223C1.97925 7.97348 3.31716 6.63556 4.95591 6.63556H14.0442C15.683 6.63556 17.0209 7.97348 17.0209 9.61223V10.7522H15.4217C14.9784 10.7522 14.5747 10.9264 14.2817 11.2272Z" stroke="#667085" stroke-width="1.1875" stroke-linecap="round" stroke-linejoin="round"/>
<path d="M1.97913 10.3244V6.70657C1.97913 5.76448 2.55704 4.92528 3.43579 4.59278L9.72163 2.21778C10.7033 1.8457 11.7562 2.57405 11.7562 3.62697V6.63529" stroke="#667085" stroke-width="1.1875" stroke-linecap="round" stroke-linejoin="round"/>
<path d="M17.859 11.5597V13.1906C17.859 13.626 17.5107 13.9822 17.0674 13.998H15.5157C14.6607 13.998 13.8769 13.3726 13.8057 12.5176C13.7582 12.0189 13.9482 11.5518 14.2807 11.2272C14.5736 10.9264 14.9774 10.7522 15.4207 10.7522H17.0674C17.5107 10.7681 17.859 11.1243 17.859 11.5597Z" stroke="#667085" stroke-width="1.1875" stroke-linecap="round" stroke-linejoin="round"/>
<path d="M5.54163 10H11.0833" stroke="#667085" stroke-width="1.1875" stroke-linecap="round" stroke-linejoin="round"/>
</svg>
