<svg width="16" height="16" viewBox="0 0 16 16" fill="none" xmlns="http://www.w3.org/2000/svg">
<path d="M8 14.6667C7.8 14.6667 7.66667 14.6 7.53333 14.4667L4.2 11.1333C3.93333 10.8667 3.93333 10.4667 4.2 10.2C4.46667 9.93333 4.86667 9.93333 5.13333 10.2L8 13.0667L10.8667 10.2C11.1333 9.93333 11.5333 9.93333 11.8 10.2C12.0667 10.4667 12.0667 10.8667 11.8 11.1333L8.46667 14.4667C8.33333 14.6 8.2 14.6667 8 14.6667Z" fill="#667085"/>
<path d="M4.66667 6.00001C4.46667 6.00001 4.33333 5.93334 4.2 5.80001C3.93333 5.53334 3.93333 5.13334 4.2 4.86668L7.53333 1.53334C7.8 1.26668 8.2 1.26668 8.46667 1.53334L11.8 4.86668C12.0667 5.13334 12.0667 5.53334 11.8 5.80001C11.5333 6.06668 11.1333 6.06668 10.8667 5.80001L8 2.93334L5.13333 5.80001C5 5.93334 4.86667 6.00001 4.66667 6.00001Z" fill="#667085"/>
</svg>
