<svg width="18" height="18" viewBox="0 0 18 18" fill="none" xmlns="http://www.w3.org/2000/svg">
<path d="M17.125 9C17.125 9.69375 16.275 10.25 16.1 10.9062C15.925 11.5625 16.375 12.4875 16.0375 13.0625C15.7 13.6375 14.675 13.7188 14.2 14.2C13.725 14.6812 13.65 15.7 13.0625 16.0375C12.475 16.375 11.5625 15.925 10.9062 16.1C10.25 16.275 9.69375 17.125 9 17.125C8.30625 17.125 7.75 16.275 7.125 16.1C6.5 15.925 5.54375 16.375 4.96875 16.0375C4.39375 15.7 4.3125 14.675 3.83125 14.2C3.35 13.725 2.33125 13.65 1.99375 13.0625C1.65625 12.475 2.10625 11.5625 1.93125 10.9062C1.75625 10.25 0.875 9.69375 0.875 9C0.875 8.30625 1.725 7.75 1.9 7.125C2.075 6.5 1.625 5.54375 1.9625 4.96875C2.3 4.39375 3.325 4.28125 3.8 3.8C4.275 3.31875 4.35 2.3 4.9375 1.9625C5.525 1.625 6.4375 2.075 7.09375 1.9C7.75 1.725 8.30625 0.875 9 0.875C9.69375 0.875 10.25 1.725 10.9062 1.9C11.5625 2.075 12.4875 1.625 13.0625 1.9625C13.6375 2.3 13.7188 3.325 14.2 3.8C14.6812 4.275 15.7 4.35 16.0375 4.9375C16.375 5.525 15.925 6.4375 16.1 7.09375C16.275 7.75 17.125 8.30625 17.125 9Z" fill="#0080FC"/>
<path d="M9 14.3125C11.934 14.3125 14.3125 11.934 14.3125 9C14.3125 6.06599 11.934 3.6875 9 3.6875C6.06599 3.6875 3.6875 6.06599 3.6875 9C3.6875 11.934 6.06599 14.3125 9 14.3125Z" fill="#0080FC"/>
<path d="M8.48661 11.4398C8.40704 11.4402 8.32819 11.4247 8.2547 11.3942C8.1812 11.3636 8.11454 11.3188 8.05863 11.2621L6.17712 9.41294C6.0637 9.29939 6 9.14546 6 8.98496C6 8.82447 6.0637 8.67054 6.17712 8.55698C6.29068 8.44356 6.44461 8.37986 6.6051 8.37986C6.7656 8.37986 6.91953 8.44356 7.03308 8.55698L8.48661 9.99435L11.3452 7.17613C11.4598 7.06262 11.6148 6.99928 11.776 7.00004C11.9373 7.00079 12.0917 7.06559 12.2052 7.18017C12.3187 7.29475 12.3821 7.44972 12.3813 7.61101C12.3805 7.77229 12.3158 7.92666 12.2012 8.04017L8.90652 11.2702C8.85199 11.3259 8.78655 11.3697 8.71429 11.3989C8.64202 11.4281 8.56451 11.442 8.48661 11.4398Z" fill="white"/>
</svg>
