<svg width="131" height="23" viewBox="0 0 131 23" fill="none" xmlns="http://www.w3.org/2000/svg">
<path d="M45.1528 20.3391C44.7709 20.3391 44.4497 20.2175 44.1893 19.9745C43.9462 19.7141 43.8247 19.3929 43.8247 19.0109V7.42207C43.8247 7.02275 43.9462 6.70156 44.1893 6.4585C44.4497 6.21544 44.7709 6.09391 45.1528 6.09391C45.5521 6.09391 45.8733 6.21544 46.1164 6.4585C46.3595 6.70156 46.481 7.02275 46.481 7.42207V19.0109C46.481 19.3929 46.3595 19.7141 46.1164 19.9745C45.8733 20.2175 45.5521 20.3391 45.1528 20.3391ZM45.1528 3.77614C44.6841 3.77614 44.2761 3.61121 43.9288 3.28134C43.599 2.9341 43.434 2.52611 43.434 2.05735C43.434 1.58858 43.599 1.18927 43.9288 0.859397C44.2761 0.512166 44.6841 0.338551 45.1528 0.338551C45.6216 0.338551 46.0209 0.512166 46.3508 0.859397C46.698 1.18927 46.8716 1.58858 46.8716 2.05735C46.8716 2.52611 46.698 2.9341 46.3508 3.28134C46.0209 3.61121 45.6216 3.77614 45.1528 3.77614Z" fill="#0080FC"/>
<path d="M63.4543 20.3651C63.0723 20.3651 62.7512 20.2436 62.4907 20.0005C62.2477 19.7401 62.1261 19.4189 62.1261 19.037V12.6305C62.1261 11.6409 61.9438 10.8336 61.5792 10.2086C61.2146 9.58358 60.7198 9.1235 60.0948 8.82836C59.4872 8.51585 58.784 8.35959 57.9854 8.35959C57.2562 8.35959 56.5965 8.50717 56.0062 8.80231C55.4159 9.09746 54.9471 9.49678 54.5999 10.0003C54.2527 10.4864 54.079 11.0506 54.079 11.693H52.4384C52.4384 10.5992 52.6988 9.62699 53.2196 8.77627C53.7579 7.90819 54.487 7.22241 55.4072 6.71893C56.3274 6.21544 57.3604 5.9637 58.5062 5.9637C59.7042 5.9637 60.7719 6.22412 61.7095 6.74497C62.6643 7.24845 63.4109 7.995 63.9491 8.98461C64.5047 9.97422 64.7825 11.1895 64.7825 12.6305V19.037C64.7825 19.4189 64.6522 19.7401 64.3918 20.0005C64.1488 20.2436 63.8363 20.3651 63.4543 20.3651ZM52.7509 20.3651C52.3689 20.3651 52.0477 20.2436 51.7873 20.0005C51.5443 19.7401 51.4227 19.4189 51.4227 19.037V7.42207C51.4227 7.02275 51.5443 6.70156 51.7873 6.4585C52.0477 6.21544 52.3689 6.09391 52.7509 6.09391C53.1502 6.09391 53.4714 6.21544 53.7145 6.4585C53.9575 6.70156 54.079 7.02275 54.079 7.42207V19.037C54.079 19.4189 53.9575 19.7401 53.7145 20.0005C53.4714 20.2436 53.1502 20.3651 52.7509 20.3651Z" fill="#0080FC"/>
<path d="M75.6328 20.4432C74.2786 20.4432 73.0546 20.1307 71.9608 19.5057C70.8844 18.8633 70.025 17.9953 69.3826 16.9015C68.7576 15.8077 68.4451 14.575 68.4451 13.2035C68.4451 11.8319 68.7315 10.6079 69.3045 9.5315C69.8948 8.43772 70.6934 7.57832 71.7004 6.95331C72.7073 6.31093 73.8445 5.98974 75.1119 5.98974C76.1362 5.98974 77.0824 6.20676 77.9505 6.6408C78.8186 7.05748 79.5478 7.63041 80.1381 8.35959V1.32816C80.1381 0.928844 80.2596 0.607655 80.5027 0.364593C80.7631 0.121531 81.0843 0 81.4662 0C81.8656 0 82.1867 0.121531 82.4298 0.364593C82.6729 0.607655 82.7944 0.928844 82.7944 1.32816V13.2035C82.7944 14.575 82.4732 15.8077 81.8308 16.9015C81.2058 17.9953 80.3551 18.8633 79.2787 19.5057C78.2023 20.1307 76.987 20.4432 75.6328 20.4432ZM75.6328 18.0994C76.5182 18.0994 77.3081 17.8911 78.0026 17.4744C78.6971 17.0404 79.244 16.4501 79.6433 15.7035C80.0426 14.957 80.2422 14.1236 80.2422 13.2035C80.2422 12.2659 80.0426 11.4326 79.6433 10.7034C79.244 9.97422 78.6971 9.40129 78.0026 8.98461C77.3081 8.55057 76.5182 8.33355 75.6328 8.33355C74.7647 8.33355 73.9747 8.55057 73.2629 8.98461C72.5684 9.40129 72.0129 9.97422 71.5962 10.7034C71.1969 11.4326 70.9972 12.2659 70.9972 13.2035C70.9972 14.1236 71.1969 14.957 71.5962 15.7035C72.0129 16.4501 72.5684 17.0404 73.2629 17.4744C73.9747 17.8911 74.7647 18.0994 75.6328 18.0994Z" fill="#0080FC"/>
<path d="M94.1782 20.4432C92.7372 20.4432 91.4524 20.1394 90.3239 19.5318C89.2128 18.9067 88.336 18.056 87.6936 16.9796C87.0686 15.8858 86.7561 14.6358 86.7561 13.2295C86.7561 11.8059 87.0512 10.5558 87.6415 9.47941C88.2492 8.38564 89.0825 7.53492 90.1416 6.92726C91.2007 6.30225 92.416 5.98974 93.7875 5.98974C95.1417 5.98974 96.305 6.29357 97.2772 6.90122C98.2494 7.49152 98.9873 8.31619 99.4908 9.37525C100.012 10.4169 100.272 11.6236 100.272 12.9951C100.272 13.325 100.159 13.6028 99.9335 13.8285C99.7078 14.0368 99.4214 14.141 99.0741 14.141H88.5791V12.0576H98.996L97.9283 12.7868C97.9109 11.9187 97.7373 11.1461 97.4074 10.469C97.0775 9.77456 96.6088 9.22767 96.0011 8.82836C95.3935 8.42904 94.6556 8.22938 93.7875 8.22938C92.7979 8.22938 91.9472 8.4464 91.2354 8.88044C90.5409 9.31448 90.0114 9.91345 89.6468 10.6774C89.2822 11.4239 89.0999 12.2746 89.0999 13.2295C89.0999 14.1844 89.3169 15.0351 89.751 15.7817C90.185 16.5282 90.784 17.1185 91.5479 17.5525C92.3118 17.9866 93.1886 18.2036 94.1782 18.2036C94.7164 18.2036 95.2633 18.1081 95.8188 17.9171C96.3918 17.7088 96.8519 17.4744 97.1991 17.214C97.4595 17.023 97.7373 16.9275 98.0324 16.9275C98.3449 16.9102 98.614 16.997 98.8397 17.188C99.1349 17.4484 99.2911 17.7348 99.3085 18.0473C99.3259 18.3599 99.187 18.629 98.8918 18.8547C98.3015 19.3234 97.5637 19.7054 96.6782 20.0005C95.8102 20.2957 94.9768 20.4432 94.1782 20.4432Z" fill="#0080FC"/>
<path d="M107.046 20.3391C106.282 20.3391 105.605 20.1307 105.014 19.7141C104.424 19.2974 103.964 18.7331 103.634 18.0213C103.304 17.2921 103.139 16.4588 103.139 15.5212V1.30212C103.139 0.920163 103.261 0.607655 103.504 0.364593C103.747 0.121531 104.059 0 104.441 0C104.823 0 105.136 0.121531 105.379 0.364593C105.622 0.607655 105.743 0.920163 105.743 1.30212V15.5212C105.743 16.1636 105.865 16.6931 106.108 17.1098C106.351 17.5265 106.664 17.7348 107.046 17.7348H107.697C108.044 17.7348 108.322 17.8564 108.53 18.0994C108.756 18.3425 108.868 18.655 108.868 19.037C108.868 19.4189 108.704 19.7314 108.374 19.9745C108.044 20.2175 107.618 20.3391 107.098 20.3391H107.046Z" fill="#0080FC"/>
<path d="M113.056 20.3391C112.674 20.3391 112.353 20.2175 112.093 19.9745C111.85 19.7141 111.728 19.3929 111.728 19.0109V7.42207C111.728 7.02275 111.85 6.70156 112.093 6.4585C112.353 6.21544 112.674 6.09391 113.056 6.09391C113.456 6.09391 113.777 6.21544 114.02 6.4585C114.263 6.70156 114.384 7.02275 114.384 7.42207V19.0109C114.384 19.3929 114.263 19.7141 114.02 19.9745C113.777 20.2175 113.456 20.3391 113.056 20.3391ZM113.056 3.77614C112.587 3.77614 112.179 3.61121 111.832 3.28134C111.502 2.9341 111.337 2.52611 111.337 2.05735C111.337 1.58858 111.502 1.18927 111.832 0.859397C112.179 0.512166 112.587 0.338551 113.056 0.338551C113.525 0.338551 113.924 0.512166 114.254 0.859397C114.601 1.18927 114.775 1.58858 114.775 2.05735C114.775 2.52611 114.601 2.9341 114.254 3.28134C113.924 3.61121 113.525 3.77614 113.056 3.77614Z" fill="#0080FC"/>
<path d="M124.144 20.313C123.606 20.313 123.189 20.0266 122.894 19.4536L117.373 7.8127C117.234 7.51756 117.217 7.23109 117.321 6.95331C117.442 6.65816 117.668 6.43246 117.998 6.27621C118.293 6.11995 118.588 6.09391 118.883 6.19808C119.196 6.30225 119.43 6.50191 119.587 6.79705L124.743 17.9171H123.493L128.597 6.79705C128.753 6.50191 128.988 6.30225 129.3 6.19808C129.63 6.09391 129.96 6.11995 130.29 6.27621C130.602 6.4151 130.811 6.63212 130.915 6.92726C131.019 7.22241 131.002 7.51756 130.863 7.8127L125.342 19.4536C125.081 20.0266 124.682 20.313 124.144 20.313Z" fill="#0080FC"/>
<path d="M10.5792 6.68614C10.572 7.30242 10.0665 7.79616 9.45023 7.78894L2.44191 7.70682C1.82563 7.6996 1.33189 7.19416 1.33911 6.57788C1.34633 5.9616 1.85178 5.46786 2.46806 5.47508L9.47638 5.55719C10.0927 5.56441 10.5864 6.06986 10.5792 6.68614Z" fill="#0080FC"/>
<path d="M9.24014 11.5167C9.23292 12.133 8.72748 12.6267 8.1112 12.6195L1.10288 12.5374C0.486596 12.5302 -0.00714238 12.0247 7.81976e-05 11.4084C0.00729878 10.7922 0.512745 10.2984 1.12902 10.3056L8.13735 10.3877C8.75363 10.395 9.24736 10.9004 9.24014 11.5167Z" fill="#0080FC"/>
<path d="M10.5792 16.4261C10.572 17.0424 10.0665 17.5361 9.45023 17.5289L2.44191 17.4468C1.82563 17.4396 1.33189 16.9341 1.33911 16.3179C1.34633 15.7016 1.85178 15.2078 2.46806 15.2151L9.47638 15.2972C10.0927 15.3044 10.5864 15.8098 10.5792 16.4261Z" fill="#0080FC"/>
<path d="M16.249 1.69569C16.2418 2.31197 15.7363 2.80571 15.1201 2.79849L8.11173 2.71638C7.49545 2.70916 7.00171 2.20371 7.00893 1.58743C7.01615 0.971151 7.5216 0.477412 8.13788 0.484632L15.1462 0.566745C15.7625 0.573965 16.2562 1.07941 16.249 1.69569Z" fill="#0080FC"/>
<path d="M16.249 21.783C16.2418 22.3992 15.7363 22.893 15.1201 22.8858L8.11173 22.8036C7.49545 22.7964 7.00171 22.291 7.00893 21.6747C7.01615 21.0584 7.5216 20.5647 8.13788 20.5719L15.1462 20.654C15.7625 20.6612 16.2562 21.1667 16.249 21.783Z" fill="#0080FC"/>
<path d="M11.5594 11.5572C11.6143 6.87347 15.4557 3.12105 20.1394 3.17593C24.8231 3.2308 28.5755 7.0722 28.5207 11.7559C28.4658 16.4396 24.6244 20.1921 19.9407 20.1372C15.2569 20.0823 11.5045 16.2409 11.5594 11.5572Z" fill="#0080FC"/>
</svg>
