<svg width="17" height="13" viewBox="0 0 17 13" fill="none" xmlns="http://www.w3.org/2000/svg">
<path d="M10.4864 6.63478L11.3951 5.72603C11.4613 5.97341 11.5 6.23203 11.5 6.50003C11.5 8.15428 10.1543 9.50003 8.5 9.50003C8.232 9.50003 7.97337 9.46128 7.726 9.39516L8.63475 8.48641C9.62838 8.41866 10.4186 7.62841 10.4864 6.63478ZM16.437 6.25716C16.3755 6.14653 15.5033 4.61816 13.7983 3.32291L13.0706 4.05053C14.3139 4.96466 15.1016 6.03078 15.4117 6.50078C14.8191 7.40316 12.4944 10.5 8.5 10.5C7.901 10.5 7.344 10.4234 6.81987 10.3012L5.99825 11.1228C6.75362 11.3544 7.58388 11.5 8.5 11.5C13.7341 11.5 16.3291 6.93703 16.437 6.74291C16.521 6.59178 16.521 6.40828 16.437 6.25716ZM14.3535 1.35353L3.3535 12.3535C3.25587 12.4512 3.12788 12.5 3 12.5C2.87212 12.5 2.74413 12.4512 2.6465 12.3535C2.45113 12.1582 2.45113 11.8418 2.6465 11.6465L4.046 10.247C1.7835 8.88116 0.633875 6.87053 0.563 6.74291C0.479 6.59178 0.479 6.40816 0.563 6.25703C0.670875 6.06303 3.26587 1.50003 8.5 1.50003C9.85337 1.50003 11.0256 1.80878 12.0278 2.26528L13.6465 0.646531C13.8419 0.451156 14.1583 0.451156 14.3535 0.646531C14.5487 0.841906 14.5489 1.15828 14.3535 1.35353ZM4.79163 9.50141L6.0575 8.23553C5.70787 7.74503 5.5 7.14691 5.5 6.50003C5.5 4.84578 6.84575 3.50003 8.5 3.50003C9.14688 3.50003 9.745 3.70791 10.2355 4.05741L11.2591 3.03378C10.4504 2.70991 9.53137 2.50003 8.5 2.50003C4.50562 2.50003 2.18087 5.59691 1.58837 6.49928C1.96463 7.06953 3.04612 8.51303 4.79163 9.50141ZM6.78337 7.50953L9.5095 4.78341C9.21212 4.60778 8.86975 4.50003 8.5 4.50003C7.39725 4.50003 6.5 5.39728 6.5 6.50003C6.5 6.86978 6.60775 7.21216 6.78337 7.50953Z" fill="#667085"/>
</svg>
