<svg width="21" height="21" viewBox="0 0 21 21" fill="none" xmlns="http://www.w3.org/2000/svg">
<path d="M19.0206 10.6938C19.0206 9.97501 18.9612 9.45001 18.8325 8.90564H10.4494V12.1525H15.37C15.2706 12.9594 14.735 14.175 13.545 14.9913L13.5281 15.1L16.1781 17.1125L16.3619 17.1306C18.0487 15.6038 19.0206 13.3581 19.0206 10.6944V10.6938Z" fill="#4285F4"/>
<path d="M10.4487 19.25C12.8594 19.25 14.8831 18.4725 16.3612 17.1306L13.5444 14.9912C12.79 15.5068 11.7781 15.8662 10.4487 15.8662C9.32869 15.8663 8.2367 15.5158 7.3259 14.8639C6.4151 14.212 5.73116 13.2914 5.36999 12.2312L5.26561 12.24L2.50936 14.33L2.47311 14.4281C3.94124 17.2862 6.95749 19.25 10.4487 19.25Z" fill="#34A853"/>
<path d="M5.36997 12.2307C5.175 11.6742 5.07445 11.089 5.07247 10.4994C5.07247 9.89692 5.18185 9.31379 5.35997 8.76942L5.35497 8.65379L2.56435 6.52942L2.4731 6.57192C1.8486 7.78724 1.52212 9.13366 1.5206 10.5C1.5206 11.91 1.8681 13.2419 2.4731 14.4275L5.36997 12.2313V12.2307Z" fill="#FBBC05"/>
<path d="M10.4488 5.13313C12.1256 5.13313 13.2563 5.84312 13.9013 6.43625L16.4213 4.025C14.8738 2.615 12.86 1.75 10.4488 1.75C6.9575 1.75 3.94125 3.71375 2.4725 6.57188L5.36 8.76937C6.08375 6.66 8.08813 5.13313 10.4488 5.13313Z" fill="#EB4335"/>
</svg>
