<svg width="16" height="16" viewBox="0 0 16 16" fill="none" xmlns="http://www.w3.org/2000/svg">
<path d="M7.91984 9.99333C7.79318 9.99333 7.66651 9.94666 7.56651 9.84666L5.85984 8.14C5.66651 7.94666 5.66651 7.62666 5.85984 7.43333C6.05318 7.24 6.37318 7.24 6.56651 7.43333L7.91984 8.78666L9.27318 7.43333C9.46651 7.24 9.78651 7.24 9.97984 7.43333C10.1732 7.62666 10.1732 7.94666 9.97984 8.14L8.27318 9.84666C8.17318 9.94666 8.04651 9.99333 7.91984 9.99333Z" fill="#0080FC"/>
<path d="M7.91992 9.94669C7.64659 9.94669 7.41992 9.72002 7.41992 9.44669V2.66669C7.41992 2.39335 7.64659 2.16669 7.91992 2.16669C8.19326 2.16669 8.41992 2.39335 8.41992 2.66669V9.44669C8.41992 9.72002 8.19326 9.94669 7.91992 9.94669Z" fill="#0080FC"/>
<path d="M7.99984 13.9533C4.5665 13.9533 2.1665 11.5533 2.1665 8.12C2.1665 7.84666 2.39317 7.62 2.6665 7.62C2.93984 7.62 3.1665 7.84666 3.1665 8.12C3.1665 10.9667 5.15317 12.9533 7.99984 12.9533C10.8465 12.9533 12.8332 10.9667 12.8332 8.12C12.8332 7.84666 13.0598 7.62 13.3332 7.62C13.6065 7.62 13.8332 7.84666 13.8332 8.12C13.8332 11.5533 11.4332 13.9533 7.99984 13.9533Z" fill="#0080FC"/>
</svg>
