<svg width="25" height="24" viewBox="0 0 25 24" fill="none" xmlns="http://www.w3.org/2000/svg">
<g clip-path="url(#clip0_16_15961)">
<path d="M12.4999 5.12222C12.0307 5.12222 11.6504 4.74192 11.6504 4.2727V0.849516C11.6504 0.380297 12.0307 0 12.4999 0C12.9691 0 13.3494 0.380297 13.3494 0.849516V4.27275C13.3494 4.74192 12.9691 5.12222 12.4999 5.12222Z" fill="black"/>
<path opacity="0.52" d="M12.4999 24C12.0307 24 11.6504 23.6197 11.6504 23.1505V19.7273C11.6504 19.258 12.0307 18.8777 12.4999 18.8777C12.9691 18.8777 13.3494 19.258 13.3494 19.7273V23.1505C13.3494 23.6197 12.9691 24 12.4999 24Z" fill="black"/>
<path opacity="0.58" d="M16.7139 23.1732C16.379 23.1732 16.0615 22.9738 15.9271 22.6446L14.6335 19.4753C14.4562 19.0409 14.6647 18.545 15.099 18.3678C15.5331 18.1902 16.0292 18.3988 16.2065 18.8331L17.5001 22.0025C17.6775 22.4369 17.469 22.9328 17.0347 23.11C16.9296 23.153 16.8209 23.1732 16.7139 23.1732Z" fill="black"/>
<path opacity="0.94" d="M15.4197 5.69546C15.3128 5.69546 15.2041 5.67521 15.099 5.63223C14.6646 5.45504 14.4562 4.9591 14.6335 4.52471L15.9272 1.35535C16.1044 0.920962 16.6003 0.711946 17.0347 0.889931C17.4691 1.06712 17.6775 1.56306 17.5001 1.99745L16.2065 5.16681C16.0721 5.49606 15.7547 5.69546 15.4197 5.69546Z" fill="black"/>
<path opacity="0.46" d="M8.2857 23.1732C8.17878 23.1732 8.07008 23.153 7.96498 23.11C7.53059 22.9328 7.32219 22.4369 7.49951 22.0025L8.79312 18.8331C8.97045 18.3987 9.46625 18.1902 9.90064 18.3677C10.335 18.5449 10.5434 19.0409 10.3661 19.4752L9.0725 22.6446C8.93811 22.9738 8.62067 23.1732 8.2857 23.1732Z" fill="black"/>
<path opacity="0.36" d="M2.17669 17.0635C1.84172 17.0635 1.52429 16.8642 1.38989 16.5349C1.21257 16.1005 1.42097 15.6046 1.85532 15.4274L5.02463 14.1337C5.45897 13.9559 5.95486 14.1646 6.13219 14.5991C6.30952 15.0335 6.10111 15.5294 5.66677 15.7066L2.49746 17.0003C2.39236 17.0433 2.28361 17.0635 2.17669 17.0635Z" fill="black"/>
<path opacity="0.82" d="M19.6545 9.92954C19.3195 9.92954 19.0021 9.73028 18.8677 9.40093C18.6903 8.96654 18.8988 8.47065 19.3331 8.29342L22.5024 6.99976C22.9366 6.82206 23.4327 7.03061 23.61 7.46518C23.7873 7.89957 23.5789 8.39547 23.1446 8.5727L19.9752 9.86636C19.8701 9.90929 19.7614 9.92954 19.6545 9.92954Z" fill="black"/>
<path opacity="0.24" d="M5.3454 9.92953C5.23848 9.92953 5.12978 9.90928 5.02464 9.8663L1.85532 8.57264C1.42093 8.39545 1.21257 7.89952 1.3899 7.46513C1.56718 7.03073 2.06293 6.82238 2.49746 6.9997L5.66678 8.29336C6.10117 8.47055 6.30953 8.96648 6.1322 9.40088C5.99781 9.73008 5.68032 9.92953 5.3454 9.92953Z" fill="black"/>
<path opacity="0.7" d="M22.8232 17.0635C22.7163 17.0635 22.6076 17.0433 22.5024 17.0003L19.3331 15.7066C18.8987 15.5294 18.6904 15.0335 18.8677 14.5991C19.045 14.165 19.5408 13.9565 19.9752 14.1337L23.1446 15.4274C23.5789 15.6046 23.7873 16.1005 23.61 16.5349C23.4756 16.864 23.1581 17.0635 22.8232 17.0635Z" fill="black"/>
<path opacity="0.88" d="M17.964 7.3855C17.7466 7.3855 17.5292 7.30254 17.3633 7.13664C17.0316 6.80496 17.0315 6.26707 17.3633 5.93538L19.7838 3.5148C20.1155 3.18297 20.6534 3.18297 20.9852 3.5148C21.3169 3.84649 21.317 4.38438 20.9852 4.71607L18.5647 7.13664C18.3988 7.30254 18.1814 7.3855 17.964 7.3855Z" fill="black"/>
<path opacity="0.4" d="M4.61535 20.7341C4.39794 20.7341 4.18058 20.6511 4.01469 20.4852C3.68296 20.1535 3.68291 19.6156 4.01465 19.284L6.43518 16.8634C6.76691 16.5315 7.3048 16.5315 7.63654 16.8634C7.96827 17.1951 7.96832 17.733 7.63658 18.0646L5.21605 20.4852C5.05016 20.6511 4.83271 20.7341 4.61535 20.7341Z" fill="black"/>
<path opacity="0.18" d="M7.0359 7.38546C6.81845 7.38546 6.60113 7.30249 6.4352 7.1366L4.01466 4.71602C3.68293 4.38433 3.68293 3.84644 4.01471 3.51476C4.3464 3.18307 4.88429 3.18307 5.21607 3.51476L7.6366 5.93534C7.96834 6.26702 7.96834 6.80491 7.63655 7.1366C7.47071 7.30249 7.25326 7.38546 7.0359 7.38546Z" fill="black"/>
<path opacity="0.64" d="M20.3845 20.7341C20.1671 20.7341 19.9497 20.6511 19.7838 20.4852L17.3633 18.0647C17.0315 17.733 17.0316 17.1951 17.3633 16.8634C17.6951 16.5317 18.233 16.5317 18.5647 16.8634L20.9852 19.284C21.317 19.6157 21.317 20.1535 20.9852 20.4852C20.8194 20.6511 20.6019 20.7341 20.3845 20.7341Z" fill="black"/>
<path opacity="0.3" d="M4.77261 12.8495H1.34952C0.880344 12.8495 0.5 12.4692 0.5 12C0.5 11.5308 0.880344 11.1505 1.34952 11.1505H4.77261C5.24178 11.1505 5.62213 11.5308 5.62213 12C5.62213 12.4692 5.24178 12.8495 4.77261 12.8495Z" fill="black"/>
<path opacity="0.76" d="M23.6504 12.8495H20.2272C19.758 12.8495 19.3777 12.4692 19.3777 12C19.3777 11.5308 19.758 11.1505 20.2272 11.1505H23.6504C24.1196 11.1505 24.4999 11.5308 24.4999 12C24.4999 12.4692 24.1196 12.8495 23.6504 12.8495Z" fill="black"/>
</g>
<defs>
<clipPath id="clip0_16_15961">
<rect width="24" height="24" fill="white" transform="translate(0.5)"/>
</clipPath>
</defs>
</svg>
