<svg width="289" height="226" viewBox="0 0 289 226" fill="none" xmlns="http://www.w3.org/2000/svg">
<path d="M107.641 63.237C107.568 69.427 102.464 74.3861 96.2412 74.3136L25.473 73.4888C19.25 73.4163 14.2644 68.3396 14.3373 62.1496C14.4102 55.9597 19.5141 51.0005 25.7371 51.0731L96.5053 51.8978C102.728 51.9703 107.714 57.0471 107.641 63.237Z" fill="#0080FC"/>
<path d="M94.1198 111.755C94.0469 117.945 88.9431 122.905 82.72 122.832L11.9519 122.007C5.72883 121.935 0.743186 116.858 0.816097 110.668C0.889009 104.478 5.99287 99.5189 12.2159 99.5915L82.9841 100.416C89.2071 100.489 94.1927 105.565 94.1198 111.755Z" fill="#0080FC"/>
<path d="M107.641 161.066C107.568 167.256 102.464 172.215 96.2412 172.143L25.473 171.318C19.25 171.245 14.2644 166.169 14.3373 159.979C14.4102 153.789 19.5141 148.83 25.7371 148.902L96.5053 149.727C102.728 149.799 107.714 154.876 107.641 161.066Z" fill="#0080FC"/>
<path d="M164.893 13.1126C164.82 19.3026 159.717 24.2617 153.494 24.1892L82.7254 23.3644C76.5024 23.2919 71.5167 18.2152 71.5896 12.0252C71.6626 5.83529 76.7664 0.876137 82.9894 0.948661L153.758 1.7734C159.981 1.84593 164.966 6.92266 164.893 13.1126Z" fill="#0080FC"/>
<path d="M164.893 214.871C164.82 221.06 159.717 226.02 153.494 225.947L82.7254 225.122C76.5024 225.05 71.5167 219.973 71.5896 213.783C71.6626 207.593 76.7664 202.634 82.9894 202.707L153.758 203.531C159.981 203.604 164.966 208.681 164.893 214.871Z" fill="#0080FC"/>
<path d="M117.539 112.162C118.093 65.1186 156.883 27.429 204.178 27.9802C251.473 28.5314 289.363 67.1146 288.809 114.158C288.255 161.202 249.466 198.891 202.171 198.34C154.876 197.789 116.985 159.206 117.539 112.162Z" fill="#0080FC"/>
</svg>
