<svg width="16" height="17" viewBox="0 0 16 17" fill="none" xmlns="http://www.w3.org/2000/svg">
<path d="M8 16.5C3.58887 16.5 0 12.9111 0 8.5C0 4.08887 3.58887 0.5 8 0.5C12.4111 0.5 16 4.08887 16 8.5C16 12.9111 12.4111 16.5 8 16.5ZM8 1.5C4.14012 1.5 1 4.64012 1 8.5C1 12.3599 4.14012 15.5 8 15.5C11.8599 15.5 15 12.3599 15 8.5C15 4.64012 11.8599 1.5 8 1.5ZM12 8.5C12 8.22363 11.7764 8 11.5 8H4.5C4.22363 8 4 8.22363 4 8.5C4 8.77637 4.22363 9 4.5 9H11.5C11.7764 9 12 8.77637 12 8.5Z" fill="#0080FC"/>
</svg>
