<svg width="16" height="17" viewBox="0 0 16 17" fill="none" xmlns="http://www.w3.org/2000/svg">
<path d="M7.3465 13.5H4.99984C4.5865 13.5 4.21984 13.4867 3.89317 13.44C2.13984 13.2467 1.6665 12.42 1.6665 10.1667V6.83333C1.6665 4.58 2.13984 3.75333 3.89317 3.56C4.21984 3.51333 4.5865 3.5 4.99984 3.5H7.3065" stroke="#0080FC" stroke-linecap="round" stroke-linejoin="round"/>
<path d="M10.0132 3.5H10.9998C11.4132 3.5 11.7798 3.51333 12.1065 3.56C13.8599 3.75333 14.3332 4.58 14.3332 6.83333V10.1667C14.3332 12.42 13.8599 13.2467 12.1065 13.44C11.7798 13.4867 11.4132 13.5 10.9998 13.5H10.0132" stroke="#0080FC" stroke-linecap="round" stroke-linejoin="round"/>
<path d="M10 1.83331V15.1666" stroke="#0080FC" stroke-linecap="round" stroke-linejoin="round"/>
<path d="M7.39657 8.50002H7.40255" stroke="#0080FC" stroke-width="1.33333" stroke-linecap="round" stroke-linejoin="round"/>
<path d="M4.72957 8.50002H4.73556" stroke="#0080FC" stroke-width="1.33333" stroke-linecap="round" stroke-linejoin="round"/>
</svg>
