<svg width="20" height="20" viewBox="0 0 20 20" fill="none" xmlns="http://www.w3.org/2000/svg">
<path fill-rule="evenodd" clip-rule="evenodd" d="M8.35921 1.45833H11.6408C12.7121 1.45832 13.5654 1.45831 14.248 1.53002C14.9497 1.60374 15.5401 1.75859 16.0575 2.11463C16.4849 2.40867 16.8489 2.7886 17.1288 3.23035C17.4654 3.76145 17.6116 4.36583 17.6815 5.08925C17.75 5.79665 17.75 6.68245 17.75 7.8022V15.2943C17.75 17.1558 15.719 18.367 14.1427 17.2719C13.7899 17.0267 13.3352 17.0267 12.9823 17.2719L12.1355 17.8602C12.114 17.8751 12.1001 17.8847 12.087 17.8937C10.821 18.7577 9.17913 18.7577 7.91303 17.8937C7.90002 17.8849 7.88628 17.8753 7.86529 17.8607L7.01773 17.2719C6.66483 17.0267 6.21017 17.0267 5.85728 17.2719C4.28103 18.367 2.25 17.1558 2.25 15.2943V7.80218C2.24999 6.68245 2.24999 5.79665 2.31843 5.08925C2.3884 4.36582 2.53466 3.76145 2.8712 3.23035C3.15112 2.7886 3.51513 2.40867 3.94245 2.11463C4.45987 1.75859 5.05028 1.60374 5.75203 1.53002C6.43465 1.45831 7.28791 1.45832 8.35921 1.45833ZM5.88262 2.77318C5.28452 2.83601 4.92736 2.95425 4.65103 3.14439C4.36492 3.34127 4.11825 3.5977 3.92707 3.89941C3.73948 4.19545 3.62367 4.5785 3.56262 5.2096C3.50068 5.84978 3.5 6.67512 3.5 7.83523V15.2943C3.5 16.2441 4.47566 16.7097 5.14409 16.2453C5.92578 15.7023 6.94922 15.7023 7.73091 16.2453L8.57538 16.832L8.61754 16.8612C9.45871 17.4352 10.5413 17.4352 11.3825 16.8612L11.4246 16.832L12.2691 16.2453C13.0508 15.7023 14.0742 15.7023 14.8559 16.2453C15.5244 16.7097 16.5 16.2441 16.5 15.2943V7.83523C16.5 6.67512 16.4993 5.84978 16.4374 5.2096C16.3764 4.5785 16.2605 4.19545 16.073 3.89941C15.8818 3.5977 15.6351 3.34127 15.349 3.14439C15.0726 2.95425 14.7155 2.83601 14.1174 2.77318C13.5077 2.70914 12.7201 2.70833 11.6053 2.70833H8.39471C7.27988 2.70833 6.49232 2.70914 5.88262 2.77318ZM6.04166 6.71875C6.04166 6.37357 6.32148 6.09375 6.66666 6.09375H13.3333C13.6785 6.09375 13.9583 6.37357 13.9583 6.71875C13.9583 7.06392 13.6785 7.34375 13.3333 7.34375H6.66666C6.32148 7.34375 6.04166 7.06392 6.04166 6.71875ZM7.70833 9.94791C7.70833 9.60275 7.98815 9.32291 8.33333 9.32291H11.6666C12.0119 9.32291 12.2916 9.60275 12.2916 9.94791C12.2916 10.2931 12.0119 10.5729 11.6666 10.5729H8.33333C7.98815 10.5729 7.70833 10.2931 7.70833 9.94791Z" fill="white"/>
</svg>
