<svg width="16" height="17" viewBox="0 0 16 17" fill="none" xmlns="http://www.w3.org/2000/svg">
<path d="M14.6665 4.49998V6.11331C14.6665 7.16665 13.9998 7.83331 12.9465 7.83331H10.6665V3.17331C10.6665 2.43331 11.2732 1.83331 12.0132 1.83331C12.7399 1.83998 13.4065 2.13331 13.8865 2.61331C14.3665 3.09998 14.6665 3.76665 14.6665 4.49998Z" stroke="#0080FC" stroke-width="0.833333" stroke-miterlimit="10" stroke-linecap="round" stroke-linejoin="round"/>
<path d="M1.3335 5.16665V14.5C1.3335 15.0533 1.96015 15.3666 2.40015 15.0333L3.54016 14.18C3.80683 13.98 4.18017 14.0066 4.42017 14.2466L5.52681 15.36C5.78681 15.62 6.21351 15.62 6.47351 15.36L7.59351 14.24C7.82684 14.0066 8.20016 13.98 8.46016 14.18L9.60018 15.0333C10.0402 15.36 10.6668 15.0466 10.6668 14.5V3.16665C10.6668 2.43331 11.2668 1.83331 12.0002 1.83331H4.66683H4.00016C2.00016 1.83331 1.3335 3.02665 1.3335 4.49998V5.16665Z" stroke="#0080FC" stroke-width="0.833333" stroke-miterlimit="10" stroke-linecap="round" stroke-linejoin="round"/>
<path d="M4 6.5H8" stroke="#0080FC" stroke-width="0.833333" stroke-linecap="round" stroke-linejoin="round"/>
<path d="M4.5 9.16669H7.5" stroke="#0080FC" stroke-width="0.833333" stroke-linecap="round" stroke-linejoin="round"/>
</svg>
