<svg width="20" height="20" viewBox="0 0 20 20" fill="none" xmlns="http://www.w3.org/2000/svg">
<path d="M18.3334 4.99999V7.01666C18.3334 8.33332 17.5 9.16666 16.1834 9.16666H13.3334V3.34166C13.3334 2.41666 14.0917 1.66666 15.0167 1.66666C15.9251 1.67499 16.7584 2.04166 17.3584 2.64166C17.9584 3.24999 18.3334 4.08332 18.3334 4.99999Z" stroke="#667085" stroke-width="1.25" stroke-miterlimit="10" stroke-linecap="round" stroke-linejoin="round"/>
<path d="M1.66663 5.83332V17.5C1.66663 18.1917 2.44994 18.5833 2.99994 18.1667L4.42496 17.1C4.75829 16.85 5.22496 16.8833 5.52496 17.1833L6.90827 18.575C7.23327 18.9 7.76664 18.9 8.09164 18.575L9.49164 17.175C9.7833 16.8833 10.25 16.85 10.575 17.1L12 18.1667C12.55 18.575 13.3333 18.1833 13.3333 17.5V3.33332C13.3333 2.41666 14.0833 1.66666 15 1.66666H5.83329H4.99996C2.49996 1.66666 1.66663 3.15832 1.66663 4.99999V5.83332Z" stroke="#667085" stroke-width="1.25" stroke-miterlimit="10" stroke-linecap="round" stroke-linejoin="round"/>
<path d="M5 7.5H10" stroke="#667085" stroke-width="1.25" stroke-linecap="round" stroke-linejoin="round"/>
<path d="M5.625 10.8333H9.375" stroke="#667085" stroke-width="1.25" stroke-linecap="round" stroke-linejoin="round"/>
</svg>
