<svg width="16" height="16" viewBox="0 0 16 16" fill="none" xmlns="http://www.w3.org/2000/svg">
<g clip-path="url(#clip0_16_16711)">
<path d="M8 16C3.58167 16 0 12.4183 0 8C0 3.58167 3.58167 0 8 0C12.4183 0 16 3.58167 16 8C15.9948 12.4161 12.4161 15.9948 8 16ZM8 1C4.13403 1 1 4.13403 1 8C1 11.866 4.13403 15 8 15C11.866 15 15 11.866 15 8C14.9958 4.13574 11.8643 1.00415 8 1Z" fill="#0080FC"/>
<path d="M8.00018 9C6.55267 8.92615 5.43621 7.69788 5.50018 6.25C5.43621 4.80212 6.55267 3.57385 8.00018 3.5C9.44769 3.57385 10.5641 4.80212 10.5002 6.25C10.5641 7.69788 9.44769 8.92615 8.00018 9ZM8.00018 4.5C7.10589 4.5752 6.43768 5.35474 6.50018 6.25C6.43768 7.14526 7.10589 7.9248 8.00018 8C8.89446 7.9248 9.56268 7.14526 9.50018 6.25C9.56268 5.35474 8.89446 4.5752 8.00018 4.5Z" fill="#0080FC"/>
<path d="M5 11.5C4.72388 11.5 4.5 11.2761 4.5 11C4.5 9.34546 6.06995 8 8 8C8.27612 8 8.5 8.22388 8.5 8.5C8.5 8.77612 8.27612 9 8 9C6.62146 9 5.5 9.89697 5.5 11C5.5 11.2761 5.27612 11.5 5 11.5Z" fill="#0080FC"/>
<path d="M9.5002 12.5C9.36763 12.5 9.24044 12.4473 9.14669 12.3535L8.14669 11.3535C7.95723 11.1574 7.95992 10.8455 8.15279 10.6526C8.34566 10.4597 8.65755 10.4571 8.85372 10.6465L9.5002 11.293L12.1467 8.6465C12.3429 8.45705 12.6547 8.45974 12.8476 8.65261C13.0405 8.84548 13.0432 9.15737 12.8537 9.35353L9.85372 12.3535C9.75997 12.4473 9.63277 12.5 9.5002 12.5Z" fill="#0080FC"/>
</g>
<defs>
<clipPath id="clip0_16_16711">
<rect width="16" height="16" fill="white"/>
</clipPath>
</defs>
</svg>
