<svg width="16" height="16" viewBox="0 0 16 16" fill="none" xmlns="http://www.w3.org/2000/svg">
<path d="M6.10646 7.74683C6.08646 7.74683 6.07313 7.74683 6.05313 7.74683C6.0198 7.74016 5.97313 7.74016 5.93313 7.74683C3.99979 7.68683 2.53979 6.16683 2.53979 4.2935C2.53979 2.38683 4.09313 0.833496 5.9998 0.833496C7.90646 0.833496 9.45979 2.38683 9.45979 4.2935C9.45313 6.16683 7.98646 7.68683 6.12646 7.74683C6.11979 7.74683 6.11313 7.74683 6.10646 7.74683ZM5.9998 1.8335C4.64646 1.8335 3.53979 2.94016 3.53979 4.2935C3.53979 5.62683 4.57979 6.70016 5.90646 6.74683C5.94646 6.74016 6.03313 6.74016 6.1198 6.74683C7.42646 6.68683 8.45313 5.6135 8.45979 4.2935C8.45979 2.94016 7.35313 1.8335 5.9998 1.8335Z" fill="#0080FC"/>
<path d="M11.0263 7.83317C11.0063 7.83317 10.9863 7.83317 10.9663 7.8265C10.693 7.85317 10.413 7.65984 10.3863 7.3865C10.3597 7.11317 10.5263 6.8665 10.7997 6.83317C10.8797 6.8265 10.9663 6.8265 11.0397 6.8265C12.013 6.77317 12.773 5.97317 12.773 4.99317C12.773 3.97984 11.953 3.15984 10.9397 3.15984C10.6663 3.1665 10.4397 2.93984 10.4397 2.6665C10.4397 2.39317 10.6663 2.1665 10.9397 2.1665C12.4997 2.1665 13.773 3.43984 13.773 4.99984C13.773 6.53317 12.573 7.77317 11.0463 7.83317C11.0397 7.83317 11.033 7.83317 11.0263 7.83317Z" fill="#0080FC"/>
<path d="M6.11307 15.0332C4.80641 15.0332 3.49307 14.6998 2.49974 14.0332C1.57307 13.4198 1.06641 12.5798 1.06641 11.6665C1.06641 10.7532 1.57307 9.9065 2.49974 9.2865C4.49974 7.95984 7.73974 7.95984 9.72641 9.2865C10.6464 9.89984 11.1597 10.7398 11.1597 11.6532C11.1597 12.5665 10.6531 13.4132 9.72641 14.0332C8.72641 14.6998 7.41974 15.0332 6.11307 15.0332ZM3.05307 10.1265C2.41307 10.5532 2.06641 11.0998 2.06641 11.6732C2.06641 12.2398 2.41974 12.7865 3.05307 13.2065C4.71307 14.3198 7.51307 14.3198 9.17307 13.2065C9.81307 12.7798 10.1597 12.2332 10.1597 11.6598C10.1597 11.0932 9.80641 10.5465 9.17307 10.1265C7.51307 9.01984 4.71307 9.01984 3.05307 10.1265Z" fill="#0080FC"/>
<path d="M12.2263 13.8333C11.993 13.8333 11.7863 13.6733 11.7396 13.4333C11.6863 13.16 11.8596 12.9 12.1263 12.84C12.5463 12.7533 12.933 12.5867 13.233 12.3533C13.613 12.0667 13.8196 11.7067 13.8196 11.3267C13.8196 10.9467 13.613 10.5867 13.2396 10.3067C12.9463 10.08 12.5796 9.92001 12.1463 9.82001C11.8796 9.76001 11.7063 9.49335 11.7663 9.22001C11.8263 8.95335 12.093 8.78001 12.3663 8.84001C12.9396 8.96668 13.4396 9.19335 13.8463 9.50668C14.4663 9.97335 14.8196 10.6333 14.8196 11.3267C14.8196 12.02 14.4596 12.68 13.8396 13.1533C13.4263 13.4733 12.9063 13.7067 12.333 13.82C12.293 13.8333 12.2596 13.8333 12.2263 13.8333Z" fill="#0080FC"/>
</svg>
