<svg width="16" height="16" viewBox="0 0 16 16" fill="none" xmlns="http://www.w3.org/2000/svg">
<g clip-path="url(#clip0_1283_9153)">
<path d="M8 16C3.58167 16 0 12.4183 0 8C0 3.58167 3.58167 0 8 0C12.4183 0 16 3.58167 16 8C15.9948 12.4161 12.4161 15.9948 8 16ZM8 1C4.13403 1 1 4.13403 1 8C1 11.866 4.13403 15 8 15C11.866 15 15 11.866 15 8C14.9958 4.13574 11.8643 1.00415 8 1Z" fill="#0080FC"/>
<path d="M7.99993 9C6.55242 8.92615 5.43597 7.69788 5.49993 6.25C5.43597 4.80212 6.55242 3.57385 7.99993 3.5C9.44744 3.57385 10.5639 4.80212 10.4999 6.25C10.5639 7.69788 9.44744 8.92615 7.99993 9ZM7.99993 4.5C7.10564 4.5752 6.43743 5.35474 6.49993 6.25C6.43743 7.14526 7.10564 7.9248 7.99993 8C8.89422 7.9248 9.56243 7.14526 9.49993 6.25C9.56243 5.35474 8.89422 4.5752 7.99993 4.5Z" fill="#0080FC"/>
<path d="M5 11.5C4.72388 11.5 4.5 11.2761 4.5 11C4.5 9.34546 6.06995 8 8 8C8.27612 8 8.5 8.22388 8.5 8.5C8.5 8.77612 8.27612 9 8 9C6.62146 9 5.5 9.89697 5.5 11C5.5 11.2761 5.27612 11.5 5 11.5Z" fill="#0080FC"/>
<path d="M9.49996 12.5002C9.36739 12.5002 9.24019 12.4475 9.14644 12.3537L8.14644 11.3537C7.95699 11.1576 7.95967 10.8457 8.15255 10.6528C8.34542 10.4599 8.65731 10.4572 8.85347 10.6467L9.49996 11.2932L12.1464 8.64669C12.3426 8.45723 12.6545 8.45992 12.8474 8.65279C13.0402 8.84566 13.0429 9.15755 12.8535 9.35372L9.85347 12.3537C9.75972 12.4475 9.63253 12.5002 9.49996 12.5002Z" fill="#0080FC"/>
</g>
<defs>
<clipPath id="clip0_1283_9153">
<rect width="16" height="16" fill="white"/>
</clipPath>
</defs>
</svg>
