<svg width="32" height="32" viewBox="0 0 32 32" fill="none" xmlns="http://www.w3.org/2000/svg">
<g clip-path="url(#clip0_1283_9369)">
<path d="M16 0C7.16375 0 0 7.16375 0 16C0 24.8363 7.16375 32 16 32C24.8363 32 32 24.8363 32 16C32 7.16375 24.8363 0 16 0ZM16 6.3125C16.8908 6.31188 17.7617 6.57546 18.5027 7.06989C19.2436 7.56433 19.8213 8.2674 20.1626 9.09019C20.5039 9.91297 20.5935 10.8185 20.4201 11.6922C20.2467 12.566 19.8181 13.3686 19.1884 13.9987C18.5588 14.6288 17.7564 15.058 16.8828 15.232C16.0092 15.406 15.1036 15.317 14.2806 14.9763C13.4576 14.6355 12.7541 14.0584 12.2591 13.3178C11.7642 12.5771 11.5 11.7064 11.5 10.8156C11.5 9.62186 11.974 8.47695 12.8178 7.63254C13.6617 6.78813 14.8062 6.31333 16 6.3125ZM25.1875 21.3581C25.1875 21.9269 25.0754 22.4902 24.8576 23.0156C24.6399 23.5411 24.3207 24.0185 23.9184 24.4206C23.516 24.8226 23.0384 25.1415 22.5127 25.3588C21.9871 25.5762 21.4238 25.6879 20.855 25.6875H11.145C9.99678 25.6875 8.89559 25.2314 8.08367 24.4195C7.27175 23.6075 6.81563 22.5063 6.81563 21.3581C6.81563 20.2099 7.27175 19.1087 8.08367 18.2968C8.89559 17.4849 9.99678 17.0287 11.145 17.0287H20.855C21.4238 17.0283 21.9871 17.14 22.5127 17.3574C23.0384 17.5748 23.516 17.8936 23.9184 18.2957C24.3207 18.6977 24.6399 19.1752 24.8576 19.7006C25.0754 20.2261 25.1875 20.7893 25.1875 21.3581Z" fill="#0080FC"/>
</g>
<defs>
<clipPath id="clip0_1283_9369">
<rect width="32" height="32" fill="white"/>
</clipPath>
</defs>
</svg>
