<svg width="50" height="50" viewBox="0 0 50 50" fill="none" xmlns="http://www.w3.org/2000/svg">
<path fill-rule="evenodd" clip-rule="evenodd" d="M10.4167 4.1665H39.5833C41.875 4.1665 43.75 6.0415 43.75 8.33317V39.9998C43.75 42.9165 40.8333 44.9998 38.125 43.9582L34.7917 42.7082C33.75 42.2915 32.7083 42.2915 31.6667 42.9165L26.6667 45.2082C25.625 45.6248 24.375 45.6248 23.3333 45.2082L18.3333 42.9165C17.2917 42.4998 16.25 42.4998 15.2083 42.7082L11.875 43.7498C9.16667 44.7915 6.25 42.7082 6.25 39.9998V8.33317C6.25 6.0415 8.125 4.1665 10.4167 4.1665ZM35.4167 16.2498C36.25 16.2498 37.0833 15.6248 37.0833 14.5832C37.0833 13.5415 36.25 12.9165 35.4167 12.9165H14.5833C13.75 12.9165 12.9167 13.7498 12.9167 14.5832C12.9167 15.4165 13.75 16.2498 14.5833 16.2498H35.4167ZM37.0833 22.9165C37.0833 23.7498 36.4583 24.5832 35.4167 24.5832H14.5833C13.75 24.5832 12.9167 23.9582 12.9167 22.9165C12.9167 21.8748 13.5417 21.2498 14.5833 21.2498H35.4167C36.25 21.2498 37.0833 22.0832 37.0833 22.9165ZM25 32.9165C25.8333 32.9165 26.6667 32.2915 26.6667 31.2498C26.6667 30.2082 26.0417 29.5832 25 29.5832H14.5833C13.75 29.5832 12.9167 30.2082 12.9167 31.2498C12.9167 32.2915 13.5417 32.9165 14.5833 32.9165H25Z" fill="#F97066"/>
</svg>
