<svg width="20" height="20" viewBox="0 0 20 20" fill="none" xmlns="http://www.w3.org/2000/svg">
<path d="M18.3335 4.99984V7.0165C18.3335 8.33317 17.5001 9.1665 16.1835 9.1665H13.3335V3.3415C13.3335 2.4165 14.0918 1.6665 15.0168 1.6665C15.9252 1.67484 16.7585 2.0415 17.3585 2.6415C17.9585 3.24984 18.3335 4.08317 18.3335 4.99984Z" stroke="white" stroke-width="1.25" stroke-miterlimit="10" stroke-linecap="round" stroke-linejoin="round"/>
<path d="M1.6665 5.83317V17.4998C1.6665 18.1915 2.44982 18.5832 2.99982 18.1665L4.42484 17.0998C4.75817 16.8498 5.22484 16.8832 5.52484 17.1832L6.90815 18.5748C7.23315 18.8998 7.76652 18.8998 8.09152 18.5748L9.49152 17.1748C9.78318 16.8832 10.2498 16.8498 10.5748 17.0998L11.9999 18.1665C12.5499 18.5748 13.3332 18.1832 13.3332 17.4998V3.33317C13.3332 2.4165 14.0832 1.6665 14.9998 1.6665H5.83317H4.99984C2.49984 1.6665 1.6665 3.15817 1.6665 4.99984V5.83317Z" stroke="white" stroke-width="1.25" stroke-miterlimit="10" stroke-linecap="round" stroke-linejoin="round"/>
<path d="M5 7.5H10" stroke="white" stroke-width="1.25" stroke-linecap="round" stroke-linejoin="round"/>
<path d="M5.625 10.8335H9.375" stroke="white" stroke-width="1.25" stroke-linecap="round" stroke-linejoin="round"/>
</svg>
