<svg width="31" height="32" viewBox="0 0 31 32" fill="none" xmlns="http://www.w3.org/2000/svg">
<g clip-path="url(#clip0_1283_9691)">
<path d="M30.9309 16.2825C30.9309 7.73962 24.0069 0.814453 15.4654 0.814453C6.92422 0.814453 0 7.73962 0 16.2825C0 24.8254 6.92422 31.7505 15.4654 31.7505C24.0069 31.7505 30.9309 24.8254 30.9309 16.2825Z" fill="#ECF7FF"/>
<path d="M25.3794 4.41113C27.3854 7.0199 28.5789 10.2862 28.5789 13.8315C28.5789 22.3744 21.6547 29.2996 13.1135 29.2996C9.34068 29.2996 5.88388 27.9479 3.19958 25.7028C6.02691 29.3801 10.4691 31.7504 15.4655 31.7504C24.0069 31.7504 30.9309 24.8253 30.9309 16.2824C30.9309 11.5131 28.7723 7.24861 25.3794 4.41113Z" fill="#ECF7FF"/>
<path d="M22.3465 11.559H19.8524C19.3159 11.559 18.8434 11.2061 18.6909 10.6918L18.6593 10.5849C18.4429 9.85535 17.7728 9.35498 17.0119 9.35498H13.9117C13.1463 9.35498 12.4731 9.86125 12.2607 10.5967L12.2357 10.6836C12.0861 11.2021 11.6114 11.559 11.0719 11.559H8.58442C7.96202 11.559 7.45764 12.0636 7.45764 12.686V21.6445C7.45764 22.2669 7.96202 22.7715 8.58442 22.7715H22.3465C22.9689 22.7715 23.4735 22.2669 23.4735 21.6445V12.686C23.4735 12.0636 22.9689 11.559 22.3465 11.559Z" fill="#0080FC"/>
<path d="M22.3465 11.559H19.8524C19.3159 11.559 18.8434 11.2061 18.691 10.6918L18.6593 10.5849C18.4429 9.85535 17.7728 9.35498 17.0119 9.35498H15.4655C16.2264 9.35498 16.8965 9.85535 17.1129 10.5849L17.1445 10.6918C17.297 11.2061 17.7695 11.559 18.306 11.559H20.5529C21.1756 11.559 21.68 12.0636 21.68 12.686V21.6445C21.68 22.2669 21.1756 22.7715 20.5529 22.7715H22.3465C22.9689 22.7715 23.4735 22.2669 23.4735 21.6445V12.686C23.4735 12.0636 22.9689 11.559 22.3465 11.559Z" fill="#0080FC"/>
<path d="M18.9386 16.9039C18.9386 15.1134 17.4872 13.6621 15.6972 13.6621C13.9072 13.6621 12.4559 15.1134 12.4559 16.9039C12.4559 18.6944 13.9072 20.1457 15.6972 20.1457C17.4872 20.1457 18.9386 18.6944 18.9386 16.9039Z" fill="#ECF7FF"/>
<path d="M17.8429 16.9037C17.8429 15.7187 16.8823 14.7578 15.6972 14.7578C14.5121 14.7578 13.5515 15.7187 13.5515 16.9037C13.5515 18.089 14.5121 19.0497 15.6972 19.0497C16.8823 19.0497 17.8429 18.089 17.8429 16.9037Z" fill="#0080FC"/>
<path d="M22.1491 13.3623C22.1491 13.6214 21.9391 13.8315 21.6799 13.8315C21.4208 13.8315 21.2107 13.6214 21.2107 13.3623C21.2107 13.1031 21.4208 12.8931 21.6799 12.8931C21.9391 12.8931 22.1491 13.1031 22.1491 13.3623Z" fill="#ECF7FF"/>
</g>
<g clip-path="url(#clip1_1283_9691)">
<path d="M25.1359 0.25C22.4704 0.25 20.3021 2.41832 20.3021 5.08376C20.3021 7.7492 22.4704 9.91752 25.1359 9.91752C27.8013 9.91752 29.9696 7.7492 29.9696 5.08376C29.9696 2.41832 27.8013 0.25 25.1359 0.25Z" fill="#12B76A"/>
<path d="M27.5858 4.0593L24.9675 6.67753C24.889 6.75608 24.7859 6.79562 24.6828 6.79562C24.5796 6.79562 24.4765 6.75608 24.398 6.67753L23.0889 5.36841C22.9313 5.21094 22.9313 4.95633 23.0889 4.79886C23.2463 4.64131 23.5009 4.64131 23.6584 4.79886L24.6828 5.8232L27.0163 3.48974C27.1738 3.3322 27.4283 3.3322 27.5858 3.48974C27.7433 3.64721 27.7433 3.90175 27.5858 4.0593Z" fill="#FAFAFA"/>
</g>
<defs>
<clipPath id="clip0_1283_9691">
<rect width="30.9361" height="30.9361" fill="white" transform="translate(0 0.814453)"/>
</clipPath>
<clipPath id="clip1_1283_9691">
<rect width="9.66752" height="9.66752" fill="white" transform="translate(20.3021 0.25)"/>
</clipPath>
</defs>
</svg>
