<svg width="25" height="24" viewBox="0 0 25 24" fill="none" xmlns="http://www.w3.org/2000/svg">
<g clip-path="url(#clip0_1283_9683)">
<path d="M24.932 12C24.932 5.3725 19.5604 0 12.934 0C6.3078 0 0.936035 5.3725 0.936035 12C0.936035 18.6275 6.3078 24 12.934 24C19.5604 24 24.932 18.6275 24.932 12Z" fill="#ECF7FF"/>
<path d="M18.2723 8.33582H16.3375C15.9213 8.33582 15.5547 8.06207 15.4364 7.66309L15.4119 7.58014C15.244 7.01416 14.7241 6.62598 14.1338 6.62598H11.7287C11.1349 6.62598 10.6127 7.01874 10.4479 7.58929L10.4285 7.65668C10.3124 8.05896 9.94415 8.33582 9.52557 8.33582H7.59583C7.11298 8.33582 6.72168 8.72729 6.72168 9.21014V16.1601C6.72168 16.6429 7.11298 17.0344 7.59583 17.0344H18.2723C18.7552 17.0344 19.1467 16.6429 19.1467 16.1601V9.21014C19.1467 8.72729 18.7552 8.33582 18.2723 8.33582Z" fill="#0080FC"/>
<path d="M18.2723 8.33582H16.3375C15.9213 8.33582 15.5547 8.06207 15.4364 7.66309L15.4119 7.58014C15.244 7.01416 14.7241 6.62598 14.1338 6.62598H12.9341C13.5244 6.62598 14.0443 7.01416 14.2122 7.58014L14.2367 7.66309C14.355 8.06207 14.7216 8.33582 15.1378 8.33582H16.8809C17.364 8.33582 17.7552 8.72729 17.7552 9.21014V16.1601C17.7552 16.6429 17.364 17.0344 16.8809 17.0344H18.2723C18.7552 17.0344 19.1467 16.6429 19.1467 16.1601V9.21014C19.1467 8.72729 18.7552 8.33582 18.2723 8.33582Z" fill="#0080FC"/>
<path d="M15.6284 12.4818C15.6284 11.0927 14.5025 9.9668 13.1138 9.9668C11.7252 9.9668 10.5992 11.0927 10.5992 12.4818C10.5992 13.8708 11.7252 14.9967 13.1138 14.9967C14.5025 14.9967 15.6284 13.8708 15.6284 12.4818Z" fill="white"/>
<path d="M14.7784 12.4822C14.7784 11.5628 14.0332 10.8174 13.1138 10.8174C12.1945 10.8174 11.4492 11.5628 11.4492 12.4822C11.4492 13.4017 12.1945 14.147 13.1138 14.147C14.0332 14.147 14.7784 13.4017 14.7784 12.4822Z" fill="#0080FC"/>
<path d="M18.1191 9.73462C18.1191 9.93567 17.9562 10.0986 17.7551 10.0986C17.5541 10.0986 17.3911 9.93567 17.3911 9.73462C17.3911 9.53357 17.5541 9.37061 17.7551 9.37061C17.9562 9.37061 18.1191 9.53357 18.1191 9.73462Z" fill="white"/>
</g>
<defs>
<clipPath id="clip0_1283_9683">
<rect width="24" height="24" fill="white" transform="translate(0.936035)"/>
</clipPath>
</defs>
</svg>
