<svg width="32" height="32" viewBox="0 0 32 32" fill="none" xmlns="http://www.w3.org/2000/svg">
<path d="M9.01323 29.3337H22.9866C26.6666 29.3337 28.1332 27.0803 28.3066 24.3337L28.9999 13.3203C29.1866 10.4403 26.8932 8.00033 23.9999 8.00033C23.1866 8.00033 22.4399 7.53366 22.0666 6.81366L21.1066 4.88033C20.4932 3.66699 18.8932 2.66699 17.5332 2.66699H14.4799C13.1066 2.66699 11.5066 3.66699 10.8932 4.88033L9.93323 6.81366C9.5599 7.53366 8.81323 8.00033 7.9999 8.00033C5.10656 8.00033 2.81323 10.4403 2.9999 13.3203L3.69323 24.3337C3.85323 27.0803 5.33323 29.3337 9.01323 29.3337Z" stroke="#667085" stroke-width="1.5" stroke-linecap="round" stroke-linejoin="round"/>
<path d="M14 10.667H18" stroke="#667085" stroke-width="1.5" stroke-linecap="round" stroke-linejoin="round"/>
<path d="M16.0001 23.9997C18.3867 23.9997 20.3334 22.053 20.3334 19.6663C20.3334 17.2797 18.3867 15.333 16.0001 15.333C13.6134 15.333 11.6667 17.2797 11.6667 19.6663C11.6667 22.053 13.6134 23.9997 16.0001 23.9997Z" stroke="#667085" stroke-width="1.5" stroke-linecap="round" stroke-linejoin="round"/>
</svg>
