<svg width="32" height="32" viewBox="0 0 32 32" fill="none" xmlns="http://www.w3.org/2000/svg">
<path d="M26 13.6667H24.2467L19.1067 9.16667C18.9867 9.06 18.8267 9 18.6667 9H6.66667C6.42667 9 6.20667 9.12667 6.08667 9.33333L3.61333 13.6667H3.33333C2.6 13.6667 2 14.2667 2 15V17C2 18.62 3.16 19.98 4.73333 20.2667C5.02 21.8467 6.38 23 8 23C9.58667 23 10.94 21.8733 11.2533 20.3333H20.0867C20.4 21.8733 21.7467 23 23.34 23C24.9333 23 26.28 21.8733 26.5933 20.3333H29.3333C29.7 20.3333 30 20.0333 30 19.6667V17.6667C30 15.46 28.2067 13.6667 26 13.6667ZM15.3333 10.3333H18.42L22.2267 13.6667H15.3333V10.3333ZM7.05333 10.3333H14V13.6667H5.14667L7.05333 10.3333ZM8 21.6667C6.9 21.6667 6 20.7667 6 19.6667C6 18.5667 6.9 17.6667 8 17.6667C9.1 17.6667 10 18.5667 10 19.6667C10 20.7667 9.1 21.6667 8 21.6667ZM23.3333 21.6667C22.2333 21.6667 21.3333 20.7667 21.3333 19.6667C21.3333 18.5667 22.2333 17.6667 23.3333 17.6667C24.4333 17.6667 25.3333 18.5667 25.3333 19.6667C25.3333 20.7667 24.4333 21.6667 23.3333 21.6667ZM28.6667 19H26.5867C26.2733 17.46 24.9267 16.3333 23.3333 16.3333C21.74 16.3333 20.3933 17.46 20.08 19H11.2533C10.94 17.46 9.59333 16.3333 8 16.3333C6.44667 16.3333 5.11333 17.42 4.76667 18.9067C3.93333 18.66 3.33333 17.8867 3.33333 17V15H26C27.4733 15 28.6667 16.1933 28.6667 17.6667V19Z" fill="#0080FC"/>
</svg>
