<svg width="20" height="20" viewBox="0 0 20 20" fill="none" xmlns="http://www.w3.org/2000/svg">
<path d="M18.125 10C18.125 10.6938 17.275 11.25 17.1 11.9062C16.925 12.5625 17.375 13.4875 17.0375 14.0625C16.7 14.6375 15.675 14.7187 15.2 15.2C14.725 15.6812 14.65 16.7 14.0625 17.0375C13.475 17.375 12.5625 16.925 11.9062 17.1C11.25 17.275 10.6938 18.125 10 18.125C9.30625 18.125 8.75 17.275 8.125 17.1C7.5 16.925 6.54375 17.375 5.96875 17.0375C5.39375 16.7 5.3125 15.675 4.83125 15.2C4.35 14.725 3.33125 14.65 2.99375 14.0625C2.65625 13.475 3.10625 12.5625 2.93125 11.9062C2.75625 11.25 1.875 10.6938 1.875 10C1.875 9.30625 2.725 8.75 2.9 8.125C3.075 7.5 2.625 6.54375 2.9625 5.96875C3.3 5.39375 4.325 5.28125 4.8 4.8C5.275 4.31875 5.35 3.3 5.9375 2.9625C6.525 2.625 7.4375 3.075 8.09375 2.9C8.75 2.725 9.30625 1.875 10 1.875C10.6938 1.875 11.25 2.725 11.9062 2.9C12.5625 3.075 13.4875 2.625 14.0625 2.9625C14.6375 3.3 14.7187 4.325 15.2 4.8C15.6812 5.275 16.7 5.35 17.0375 5.9375C17.375 6.525 16.925 7.4375 17.1 8.09375C17.275 8.75 18.125 9.30625 18.125 10Z" fill="#667085"/>
<path d="M10 15.3125C12.934 15.3125 15.3125 12.934 15.3125 10C15.3125 7.06599 12.934 4.6875 10 4.6875C7.06599 4.6875 4.6875 7.06599 4.6875 10C4.6875 12.934 7.06599 15.3125 10 15.3125Z" fill="#667085"/>
<path d="M9.48661 12.4398C9.40704 12.4401 9.32819 12.4246 9.2547 12.3941C9.1812 12.3636 9.11454 12.3187 9.05863 12.2621L7.17712 10.4129C7.0637 10.2994 7 10.1454 7 9.98493C7 9.82444 7.0637 9.67051 7.17712 9.55695C7.29068 9.44353 7.44461 9.37983 7.6051 9.37983C7.7656 9.37983 7.91953 9.44353 8.03308 9.55695L9.48661 10.9943L12.3452 8.1761C12.4598 8.06259 12.6148 7.99925 12.776 8.00001C12.9373 8.00076 13.0917 8.06556 13.2052 8.18014C13.3187 8.29472 13.3821 8.44969 13.3813 8.61097C13.3805 8.77226 13.3158 8.92663 13.2012 9.04014L9.90652 12.2702C9.85199 12.3259 9.78655 12.3697 9.71429 12.3989C9.64203 12.4281 9.56451 12.442 9.48661 12.4398Z" fill="white"/>
</svg>
