<svg width="16" height="16" viewBox="0 0 16 16" fill="none" xmlns="http://www.w3.org/2000/svg">
<path d="M5.33325 3.8335C5.05992 3.8335 4.83325 3.60683 4.83325 3.3335V1.3335C4.83325 1.06016 5.05992 0.833496 5.33325 0.833496C5.60659 0.833496 5.83325 1.06016 5.83325 1.3335V3.3335C5.83325 3.60683 5.60659 3.8335 5.33325 3.8335Z" fill="#0080FC"/>
<path d="M10.6667 3.8335C10.3934 3.8335 10.1667 3.60683 10.1667 3.3335V1.3335C10.1667 1.06016 10.3934 0.833496 10.6667 0.833496C10.9401 0.833496 11.1667 1.06016 11.1667 1.3335V3.3335C11.1667 3.60683 10.9401 3.8335 10.6667 3.8335Z" fill="#0080FC"/>
<path d="M10 15.1668H6C2.25333 15.1668 1.5 13.4002 1.5 10.5468V6.4335C1.5 3.2735 2.56667 1.98683 5.30667 1.8335H10.6667C10.6733 1.8335 10.6867 1.8335 10.6933 1.8335C13.4333 1.98683 14.5 3.2735 14.5 6.4335V10.5468C14.5 13.4002 13.7467 15.1668 10 15.1668ZM5.33333 2.8335C3.46667 2.94016 2.5 3.52683 2.5 6.4335V10.5468C2.5 13.1002 2.98667 14.1668 6 14.1668H10C13.0133 14.1668 13.5 13.1002 13.5 10.5468V6.4335C13.5 3.5335 12.54 2.94016 10.6533 2.8335H5.33333Z" fill="#0080FC"/>
<path d="M13.8334 12.2334H2.16675C1.89341 12.2334 1.66675 12.0067 1.66675 11.7334C1.66675 11.4601 1.89341 11.2334 2.16675 11.2334H13.8334C14.1067 11.2334 14.3334 11.4601 14.3334 11.7334C14.3334 12.0067 14.1067 12.2334 13.8334 12.2334Z" fill="#0080FC"/>
<path d="M7.99992 5.5C7.17992 5.5 6.48658 5.94667 6.48658 6.81333C6.48658 7.22667 6.67992 7.54 6.97325 7.74C6.56659 7.98 6.33325 8.36667 6.33325 8.82C6.33325 9.64667 6.96659 10.16 7.99992 10.16C9.02659 10.16 9.66659 9.64667 9.66659 8.82C9.66659 8.36667 9.43325 7.97333 9.01992 7.74C9.31992 7.53333 9.50659 7.22667 9.50659 6.81333C9.50659 5.94667 8.81992 5.5 7.99992 5.5ZM7.99992 7.39333C7.65325 7.39333 7.39992 7.18667 7.39992 6.86C7.39992 6.52667 7.65325 6.33333 7.99992 6.33333C8.34659 6.33333 8.59992 6.52667 8.59992 6.86C8.59992 7.18667 8.34659 7.39333 7.99992 7.39333ZM7.99992 9.33333C7.55992 9.33333 7.23992 9.11333 7.23992 8.71333C7.23992 8.31333 7.55992 8.1 7.99992 8.1C8.43992 8.1 8.75992 8.32 8.75992 8.71333C8.75992 9.11333 8.43992 9.33333 7.99992 9.33333Z" fill="#0080FC"/>
</svg>
