<svg width="16" height="16" viewBox="0 0 16 16" fill="none" xmlns="http://www.w3.org/2000/svg">
<path fill-rule="evenodd" clip-rule="evenodd" d="M5.50008 3.33333C5.50008 2.32081 6.32089 1.5 7.33341 1.5H8.66675C9.67928 1.5 10.5001 2.32081 10.5001 3.33333V3.5H13.3334C13.6095 3.5 13.8334 3.72386 13.8334 4C13.8334 4.27614 13.6095 4.5 13.3334 4.5H12.5001V12C12.5001 13.0125 11.6793 13.8333 10.6667 13.8333H5.33341C4.32089 13.8333 3.50008 13.0125 3.50008 12V4.5H2.66675C2.39061 4.5 2.16675 4.27614 2.16675 4C2.16675 3.72386 2.39061 3.5 2.66675 3.5H5.50008V3.33333ZM4.50008 4.5V12C4.50008 12.4603 4.87317 12.8333 5.33341 12.8333H10.6667C11.127 12.8333 11.5001 12.4603 11.5001 12V4.5H4.50008ZM9.50008 3.5H6.50008V3.33333C6.50008 2.87309 6.87315 2.5 7.33341 2.5H8.66675C9.12701 2.5 9.50008 2.87309 9.50008 3.33333V3.5ZM6.66675 6.16667C6.94288 6.16667 7.16675 6.39053 7.16675 6.66667V10.6667C7.16675 10.9428 6.94288 11.1667 6.66675 11.1667C6.39061 11.1667 6.16675 10.9428 6.16675 10.6667V6.66667C6.16675 6.39053 6.39061 6.16667 6.66675 6.16667ZM9.33341 6.16667C9.60955 6.16667 9.83341 6.39053 9.83341 6.66667V10.6667C9.83341 10.9428 9.60955 11.1667 9.33341 11.1667C9.05728 11.1667 8.83341 10.9428 8.83341 10.6667V6.66667C8.83341 6.39053 9.05728 6.16667 9.33341 6.16667Z" fill="#0080FC"/>
</svg>
