<svg width="20" height="20" viewBox="0 0 20 20" fill="none" xmlns="http://www.w3.org/2000/svg">
<path d="M16.1082 4.73356L10.8832 1.91689C10.3332 1.61689 9.66657 1.61689 9.11657 1.91689L3.89157 4.73356C3.50824 4.94189 3.2749 5.34189 3.2749 5.80023C3.2749 6.25023 3.50824 6.65856 3.89157 6.86689L9.11657 9.68356C9.39157 9.83356 9.6999 9.90856 9.9999 9.90856C10.2999 9.90856 10.6082 9.83356 10.8832 9.68356L16.1082 6.86689C16.4916 6.65856 16.7249 6.25856 16.7249 5.80023C16.7249 5.34189 16.4916 4.94189 16.1082 4.73356Z" fill="#667085"/>
<path d="M8.25817 10.6585L3.3915 8.22516C3.0165 8.04183 2.58317 8.0585 2.23317 8.27516C1.87484 8.50016 1.6665 8.87516 1.6665 9.29183V13.8835C1.6665 14.6752 2.10817 15.3918 2.8165 15.7502L7.67484 18.1835C7.84151 18.2668 8.02484 18.3085 8.20817 18.3085C8.42484 18.3085 8.64151 18.2502 8.83317 18.1335C9.19151 17.9168 9.39984 17.5335 9.39984 17.1168V12.5252C9.40817 11.7252 8.96651 11.0085 8.25817 10.6585Z" fill="#667085"/>
<path d="M17.7668 8.27512C17.4084 8.05845 16.9751 8.03345 16.6084 8.22512L11.7501 10.6585C11.0418 11.0168 10.6001 11.7251 10.6001 12.5251V17.1168C10.6001 17.5335 10.8084 17.9168 11.1668 18.1334C11.3584 18.2501 11.5751 18.3084 11.7918 18.3084C11.9751 18.3084 12.1584 18.2668 12.3251 18.1834L17.1834 15.7501C17.8918 15.3918 18.3334 14.6834 18.3334 13.8834V9.29178C18.3334 8.87512 18.1251 8.50012 17.7668 8.27512Z" fill="#667085"/>
</svg>
