<svg width="16" height="16" viewBox="0 0 16 16" fill="none" xmlns="http://www.w3.org/2000/svg">
<path d="M7.33325 1.3335H5.99992C2.66659 1.3335 1.33325 2.66683 1.33325 6.00016V10.0002C1.33325 13.3335 2.66659 14.6668 5.99992 14.6668H9.99992C13.3333 14.6668 14.6666 13.3335 14.6666 10.0002V8.66683" stroke="#0080FC" stroke-linecap="round" stroke-linejoin="round"/>
<path d="M10.6933 2.01301L5.43992 7.26635C5.23992 7.46635 5.03992 7.85968 4.99992 8.14635L4.71325 10.153C4.60659 10.8797 5.11992 11.3863 5.84659 11.2863L7.85325 10.9997C8.13325 10.9597 8.52659 10.7597 8.73325 10.5597L13.9866 5.30635C14.8933 4.39968 15.3199 3.34635 13.9866 2.01301C12.6533 0.67968 11.5999 1.10635 10.6933 2.01301Z" stroke="#0080FC" stroke-miterlimit="10" stroke-linecap="round" stroke-linejoin="round"/>
<path d="M9.93994 2.7666C10.3866 4.35994 11.6333 5.6066 13.2333 6.05994" stroke="#0080FC" stroke-miterlimit="10" stroke-linecap="round" stroke-linejoin="round"/>
</svg>
