<svg width="20" height="21" viewBox="0 0 20 21" fill="none" xmlns="http://www.w3.org/2000/svg">
<g clip-path="url(#clip0_1283_8910)">
<path d="M10 13.5C10.7956 13.5 11.5587 13.1839 12.1213 12.6213C12.6839 12.0587 13 11.2956 13 10.5C13 9.70435 12.6839 8.94129 12.1213 8.37868C11.5587 7.81607 10.7956 7.5 10 7.5C9.20435 7.5 8.44129 7.81607 7.87868 8.37868C7.31607 8.94129 7 9.70435 7 10.5C7 11.2956 7.31607 12.0587 7.87868 12.6213C8.44129 13.1839 9.20435 13.5 10 13.5Z" fill="#788BA5"/>
<path fill-rule="evenodd" clip-rule="evenodd" d="M9.99995 4.5C8.19995 4.5 6.52495 5.467 5.22695 6.509C3.90995 7.565 2.86995 8.789 2.32395 9.485C1.85295 10.085 1.85295 10.915 2.32395 11.515C2.86995 12.211 3.90995 13.435 5.22695 14.491C6.52495 15.533 8.19995 16.5 9.99995 16.5C11.8 16.5 13.475 15.533 14.773 14.491C16.09 13.435 17.13 12.211 17.676 11.515C18.147 10.915 18.147 10.085 17.676 9.485C17.13 8.789 16.09 7.565 14.773 6.509C13.475 5.467 11.8 4.5 9.99995 4.5ZM3.50295 10.412C4.01495 9.76 4.97495 8.634 6.16595 7.679C7.37395 6.709 8.71395 6 9.99995 6C11.286 6 12.626 6.709 13.834 7.679C15.025 8.634 15.984 9.759 16.497 10.412C16.5173 10.4369 16.5285 10.4679 16.529 10.5C16.5285 10.5321 16.5173 10.5631 16.497 10.588C15.985 11.241 15.025 12.366 13.834 13.321C12.626 14.291 11.286 15 9.99995 15C8.71395 15 7.37395 14.291 6.16595 13.321C4.97595 12.366 4.01595 11.241 3.50295 10.589C3.48243 10.5639 3.47114 10.5325 3.47095 10.5C3.47095 10.474 3.47895 10.443 3.50295 10.412Z" fill="#788BA5"/>
</g>
<defs>
<clipPath id="clip0_1283_8910">
<rect width="20" height="20" fill="white" transform="translate(0 0.5)"/>
</clipPath>
</defs>
</svg>
