<svg width="24" height="24" viewBox="0 0 24 24" fill="none" xmlns="http://www.w3.org/2000/svg">
<g clip-path="url(#clip0_1283_9388)">
<path d="M16.2361 11.5731C16.7655 11.5731 17.283 11.4161 17.7232 11.122C18.1633 10.8279 18.5064 10.4099 18.709 9.92081C18.9115 9.43173 18.9645 8.89357 18.8613 8.37436C18.758 7.85516 18.5031 7.37824 18.1287 7.00392C17.7544 6.62959 17.2775 6.37468 16.7583 6.2714C16.2391 6.16813 15.7009 6.22113 15.2119 6.42371C14.7228 6.6263 14.3048 6.96936 14.0107 7.40952C13.7165 7.84967 13.5596 8.36716 13.5596 8.89653C13.5596 9.6064 13.8416 10.2872 14.3435 10.7891C14.8455 11.2911 15.5263 11.5731 16.2361 11.5731ZM16.2361 8.00122C16.4132 8.00122 16.5863 8.05373 16.7335 8.15211C16.8808 8.25049 16.9955 8.39032 17.0633 8.55391C17.1311 8.71751 17.1488 8.89753 17.1142 9.0712C17.0797 9.24487 16.9944 9.4044 16.8692 9.52962C16.744 9.65483 16.5845 9.7401 16.4108 9.77464C16.2371 9.80919 16.0571 9.79146 15.8935 9.72369C15.7299 9.65593 15.5901 9.54118 15.4917 9.39394C15.3933 9.24671 15.3408 9.07361 15.3408 8.89653C15.3411 8.65916 15.4355 8.43158 15.6033 8.26373C15.7712 8.09588 15.9988 8.00147 16.2361 8.00122Z" fill="#667085"/>
<path d="M23.5125 5.65456C23.0747 3.17628 20.8238 0.925346 18.3455 0.487533C16.8418 0.237689 14.7952 0.00331445 12 3.31997e-05C9.20488 -0.00324805 7.15831 0.237221 5.65456 0.487533C3.17628 0.925346 0.925346 3.17628 0.487533 5.65456C0.237689 7.15831 0.00331445 9.20488 3.31997e-05 12C-0.00324805 14.7952 0.237221 16.8418 0.487533 18.3455C0.925346 20.8238 3.17628 23.0747 5.65456 23.5125C7.15831 23.7628 9.20488 23.9968 12 24C14.7952 24.0033 16.8418 23.7628 18.3455 23.5125C20.8238 23.0747 23.0747 20.8238 23.5125 18.3455C23.7624 16.8418 23.9968 14.7952 24 12C24.0033 9.20488 23.7624 7.15831 23.5125 5.65456ZM2.243 5.95644C2.55425 4.21878 4.21878 2.55472 5.95644 2.243C7.81269 1.93503 9.78941 1.78363 12 1.78128C14.2107 1.77894 16.1864 1.93503 18.0436 2.243C19.7813 2.55425 21.4453 4.21878 21.7571 5.95597C22.065 7.81316 22.216 9.79035 22.2188 12C22.2188 13.3871 22.1569 14.6822 22.0364 15.9132C21.6146 15.3136 21.1927 14.7118 20.7638 14.1019C20.0836 13.1433 19.0257 12.585 17.933 12.6127C16.8919 12.6371 15.9596 13.1752 15.376 14.0855C15.2697 14.2508 15.1627 14.4164 15.0549 14.5824C14.881 14.8496 14.6489 14.8908 14.5261 14.8918H14.5228C14.3025 14.8918 14.0958 14.7708 13.9552 14.5594C12.9075 12.9896 11.6794 11.1328 10.5183 9.26628C9.9441 8.34144 9.03425 7.79722 8.02269 7.77285C6.94738 7.74519 5.93863 8.29925 5.25706 9.28972C4.23097 10.7846 3.16785 12.2935 2.13988 13.7532L1.838 14.1811C1.8005 13.478 1.78128 12.7528 1.78128 12C1.7841 9.78988 1.93503 7.81269 2.243 5.95644ZM18.0436 21.7571C16.1869 22.065 14.2097 22.2188 12 22.2188C9.79035 22.2188 7.81316 22.065 5.95597 21.7571C4.21878 21.4453 2.55425 19.7813 2.243 18.0441C2.1805 17.6747 2.1255 17.2997 2.078 16.9191C2.08222 16.9135 2.08691 16.9088 2.09066 16.9032L2.32128 16.5858L2.32972 16.5741C2.74816 15.9772 3.17003 15.3782 3.59535 14.7769C4.6266 13.313 5.693 11.7994 6.72378 10.298C7.05191 9.82175 7.4991 9.55128 7.95331 9.55128H7.98097C8.38691 9.56113 8.75113 9.79316 9.00706 10.2052C10.1818 12.0933 11.4193 13.965 12.4758 15.5457C12.9446 16.2511 13.711 16.6707 14.5257 16.6707H14.5393C14.9404 16.6653 15.3339 16.5602 15.6843 16.365C16.0348 16.1698 16.3312 15.8905 16.5469 15.5522C16.6557 15.3844 16.7639 15.2171 16.8727 15.0478C17.1366 14.6363 17.5289 14.4038 17.9733 14.3916C18.4805 14.3818 18.9671 14.6494 19.3074 15.1289C20.1043 16.2596 20.8824 17.3663 21.6488 18.4753C21.1664 20.0508 19.6374 21.4716 18.0436 21.7571Z" fill="#667085"/>
</g>
<defs>
<clipPath id="clip0_1283_9388">
<rect width="24" height="24" fill="white"/>
</clipPath>
</defs>
</svg>
