<svg width="20" height="20" viewBox="0 0 20 20" fill="none" xmlns="http://www.w3.org/2000/svg">
<g clip-path="url(#clip0_1283_9430)">
<path d="M10 20C15.5228 20 20 15.5228 20 10C20 4.47715 15.5228 0 10 0C4.47715 0 0 4.47715 0 10C0 15.5228 4.47715 20 10 20Z" fill="#F7931E"/>
<path d="M20 10C20 15.5333 15.5333 20 10 20C4.46667 20 0 15.5333 0 10H20Z" fill="#009245"/>
<path d="M20 10C20 8.86667 19.8 7.73333 19.4 6.66667H0.6C-0.2 8.8 -0.2 11.2 0.6 13.3333H19.4667C19.8 12.2667 20 11.1333 20 10Z" fill="#F0F0F0"/>
<path d="M9.99992 7.33333C8.53325 7.33333 7.33325 8.53333 7.33325 10C7.33325 11.4667 8.53325 12.6667 9.99992 12.6667C11.4666 12.6667 12.6666 11.4667 12.6666 10C12.6666 8.53333 11.4666 7.33333 9.99992 7.33333ZM9.99992 12C8.86659 12 7.99992 11.1333 7.99992 10C7.99992 8.86667 8.86659 8 9.99992 8C11.1333 8 11.9999 8.86667 11.9999 10C11.9999 11.1333 11.1333 12 9.99992 12Z" fill="#0071BC"/>
<path d="M9.99984 11.3333C10.7362 11.3333 11.3332 10.7364 11.3332 10C11.3332 9.26362 10.7362 8.66667 9.99984 8.66667C9.26346 8.66667 8.6665 9.26362 8.6665 10C8.6665 10.7364 9.26346 11.3333 9.99984 11.3333Z" fill="#0071BC"/>
</g>
<defs>
<clipPath id="clip0_1283_9430">
<rect width="20" height="20" fill="white"/>
</clipPath>
</defs>
</svg>
