<svg width="16" height="16" viewBox="0 0 16 16" fill="none" xmlns="http://www.w3.org/2000/svg">
<path d="M14.6667 4.00016V5.6135C14.6667 6.66683 14.0001 7.3335 12.9467 7.3335H10.6667V2.6735C10.6667 1.9335 11.2734 1.3335 12.0134 1.3335C12.7401 1.34016 13.4068 1.6335 13.8868 2.1135C14.3668 2.60016 14.6667 3.26683 14.6667 4.00016Z" stroke="#0080FC" stroke-width="0.833333" stroke-miterlimit="10" stroke-linecap="round" stroke-linejoin="round"/>
<path d="M1.33325 4.66683V14.0002C1.33325 14.5535 1.9599 14.8668 2.3999 14.5335L3.53992 13.6802C3.80658 13.4802 4.17992 13.5068 4.41992 13.7468L5.52657 14.8602C5.78657 15.1202 6.21327 15.1202 6.47327 14.8602L7.59326 13.7402C7.8266 13.5068 8.19992 13.4802 8.45992 13.6802L9.59994 14.5335C10.0399 14.8602 10.6666 14.5468 10.6666 14.0002V2.66683C10.6666 1.9335 11.2666 1.3335 11.9999 1.3335H4.66659H3.99992C1.99992 1.3335 1.33325 2.52683 1.33325 4.00016V4.66683Z" stroke="#0080FC" stroke-width="0.833333" stroke-miterlimit="10" stroke-linecap="round" stroke-linejoin="round"/>
<path d="M4 6H8" stroke="#0080FC" stroke-width="0.833333" stroke-linecap="round" stroke-linejoin="round"/>
<path d="M4.5 8.6665H7.5" stroke="#0080FC" stroke-width="0.833333" stroke-linecap="round" stroke-linejoin="round"/>
</svg>
