<svg width="20" height="20" viewBox="0 0 20 20" fill="none" xmlns="http://www.w3.org/2000/svg">
<path fill-rule="evenodd" clip-rule="evenodd" d="M8.35921 1.4585H11.6408C12.7121 1.45849 13.5654 1.45848 14.248 1.53019C14.9497 1.6039 15.5401 1.75875 16.0575 2.1148C16.4849 2.40884 16.8489 2.78876 17.1288 3.23051C17.4654 3.76161 17.6116 4.366 17.6815 5.08941C17.75 5.79682 17.75 6.68262 17.75 7.80236V15.2945C17.75 17.156 15.719 18.3672 14.1427 17.2721C13.7899 17.0269 13.3352 17.0269 12.9823 17.2721L12.1355 17.8603C12.114 17.8752 12.1001 17.8849 12.087 17.8939C10.821 18.7578 9.17913 18.7578 7.91303 17.8939C7.90002 17.8851 7.88628 17.8755 7.86529 17.8609L7.01773 17.2721C6.66483 17.0269 6.21017 17.0269 5.85728 17.2721C4.28103 18.3672 2.25 17.156 2.25 15.2945V7.80235C2.24999 6.68261 2.24999 5.79681 2.31843 5.08941C2.3884 4.36599 2.53466 3.76161 2.8712 3.23051C3.15112 2.78876 3.51513 2.40884 3.94245 2.1148C4.45987 1.75875 5.05028 1.6039 5.75203 1.53019C6.43465 1.45848 7.28791 1.45849 8.35921 1.4585ZM5.88262 2.77335C5.28452 2.83618 4.92736 2.95441 4.65103 3.14455C4.36492 3.34144 4.11825 3.59787 3.92707 3.89958C3.73948 4.19561 3.62367 4.57867 3.56262 5.20977C3.50068 5.84995 3.5 6.67529 3.5 7.8354V15.2945C3.5 16.2442 4.47566 16.7099 5.14409 16.2455C5.92578 15.7025 6.94923 15.7025 7.73091 16.2455L8.57538 16.8322L8.61754 16.8614C9.45871 17.4353 10.5413 17.4353 11.3825 16.8614L11.4246 16.8322L12.2691 16.2455C13.0508 15.7025 14.0742 15.7025 14.8559 16.2455C15.5244 16.7099 16.5 16.2442 16.5 15.2945V7.8354C16.5 6.67529 16.4993 5.84995 16.4374 5.20977C16.3764 4.57867 16.2605 4.19561 16.073 3.89958C15.8818 3.59787 15.6351 3.34144 15.349 3.14455C15.0726 2.95441 14.7155 2.83618 14.1174 2.77335C13.5077 2.7093 12.7201 2.7085 11.6053 2.7085H8.39471C7.27988 2.7085 6.49232 2.7093 5.88262 2.77335ZM6.04166 6.71891C6.04166 6.37374 6.32148 6.09391 6.66666 6.09391H13.3333C13.6785 6.09391 13.9583 6.37374 13.9583 6.71891C13.9583 7.06409 13.6785 7.34391 13.3333 7.34391H6.66666C6.32148 7.34391 6.04166 7.06409 6.04166 6.71891ZM7.70833 9.94808C7.70833 9.60291 7.98815 9.32308 8.33333 9.32308H11.6666C12.0119 9.32308 12.2916 9.60291 12.2916 9.94808C12.2916 10.2932 12.0119 10.5731 11.6666 10.5731H8.33333C7.98815 10.5731 7.70833 10.2932 7.70833 9.94808Z" fill="white"/>
</svg>
