<svg width="20" height="20" viewBox="0 0 20 20" fill="none" xmlns="http://www.w3.org/2000/svg">
<path d="M16.5881 5.38484C17.2253 5.38484 17.7419 4.86825 17.7419 4.23099C17.7419 3.59374 17.2253 3.07715 16.5881 3.07715C15.9508 3.07715 15.4342 3.59374 15.4342 4.23099C15.4342 4.86825 15.9508 5.38484 16.5881 5.38484Z" fill="#DDAC51"/>
<path d="M13.5111 3.07674C14.1483 3.07674 14.6649 2.56014 14.6649 1.92289C14.6649 1.28564 14.1483 0.769043 13.5111 0.769043C12.8738 0.769043 12.3572 1.28564 12.3572 1.92289C12.3572 2.56014 12.8738 3.07674 13.5111 3.07674Z" fill="#DDAC51"/>
<path d="M10.4342 2.30769C11.0714 2.30769 11.588 1.7911 11.588 1.15385C11.588 0.516595 11.0714 0 10.4342 0C9.79693 0 9.28033 0.516595 9.28033 1.15385C9.28033 1.7911 9.79693 2.30769 10.4342 2.30769Z" fill="#DDAC51"/>
<path d="M7.35728 3.84627C7.99453 3.84627 8.51112 3.32967 8.51112 2.69242C8.51112 2.05517 7.99453 1.53857 7.35728 1.53857C6.72002 1.53857 6.20343 2.05517 6.20343 2.69242C6.20343 3.32967 6.72002 3.84627 7.35728 3.84627Z" fill="#DDAC51"/>
<path d="M15.4342 4.23073V9.23073C15.4342 9.44304 15.2619 9.61535 15.0496 9.61535C14.8373 9.61535 14.665 9.44304 14.665 9.23073V1.92304H12.3573V8.4615C12.3573 8.67381 12.185 8.84612 11.9726 8.84612C11.7603 8.84612 11.588 8.67381 11.588 8.4615V1.15381H9.28034V8.4615C9.28034 8.67381 9.10803 8.84612 8.89572 8.84612C8.68342 8.84612 8.51111 8.67381 8.51111 8.4615V2.69227H6.20342V12.3077L4.64572 10.1761C4.18418 9.46458 3.28342 9.22612 2.62342 9.63381C1.96572 10.0507 1.80265 10.96 2.25803 11.6692C2.25803 11.6692 4.77034 15.4715 5.84111 17.0992C6.91188 18.7269 8.64649 20 11.8903 20C17.2611 20 17.7419 15.8523 17.7419 14.6153C17.7419 13.3784 17.7419 4.23073 17.7419 4.23073H15.4342Z" fill="#DDAC51"/>
</svg>
