<svg width="32" height="32" viewBox="0 0 32 32" fill="none" xmlns="http://www.w3.org/2000/svg">
<path d="M29.5 14H27.5V10.5C27.5 7.46729 25.0327 5 22 5H16.5C16.2239 5 16 5.22388 16 5.5V14H14V12.5H14.5C14.7761 12.5 15 12.2761 15 12C15 11.7239 14.7761 11.5 14.5 11.5H14V9.5H14.5C14.7761 9.5 15 9.27612 15 9C15 8.72388 14.7761 8.5 14.5 8.5H14V7C14 6.72388 13.7761 6.5 13.5 6.5C13.2239 6.5 13 6.72388 13 7V8.5H5.5V7C5.5 6.72388 5.27612 6.5 5 6.5C4.72388 6.5 4.5 6.72388 4.5 7V8.5H4C3.72388 8.5 3.5 8.72388 3.5 9C3.5 9.27612 3.72388 9.5 4 9.5H4.5V11.5H4C3.72388 11.5 3.5 11.7239 3.5 12C3.5 12.2761 3.72388 12.5 4 12.5H4.5V14H4C3.17285 14 2.5 14.6729 2.5 15.5V16.5V18.5V21H1.5C1.22388 21 1 21.2239 1 21.5C1 21.7761 1.22388 22 1.5 22H3H5.54517C5.78433 23.4166 7.01639 24.5 8.5 24.5C9.98361 24.5 11.2157 23.4166 11.4548 22H21.5452C21.7843 23.4166 23.0164 24.5 24.5 24.5C25.9836 24.5 27.2157 23.4166 27.4548 22H29.5C30.3447 22 31 21.0593 31 20.25V18.5V16.5V15.25C31 14.6458 30.606 14 29.5 14ZM5.5 9.5H13V11.5H5.5V9.5ZM5.5 12.5H13V14H5.5V12.5ZM3.5 17H5V18H3.5V17ZM3.5 19H5.5C5.77612 19 6 18.7761 6 18.5V16.5C6 16.2239 5.77612 16 5.5 16H3.5V15.5C3.5 15.2244 3.72437 15 4 15H16V21H11.4548C11.2157 19.5834 9.98361 18.5 8.5 18.5C7.01639 18.5 5.78433 19.5834 5.54517 21H3.5V19ZM8.5 23.5C7.39722 23.5 6.5 22.6028 6.5 21.5C6.5 20.3972 7.39722 19.5 8.5 19.5C9.60278 19.5 10.5 20.3972 10.5 21.5C10.5 22.6028 9.60278 23.5 8.5 23.5ZM24.5 23.5C23.3972 23.5 22.5 22.6028 22.5 21.5C22.5 20.3972 23.3972 19.5 24.5 19.5C25.6028 19.5 26.5 20.3972 26.5 21.5C26.5 22.6028 25.6028 23.5 24.5 23.5ZM29.5 21H27.4548C27.2157 19.5834 25.9836 18.5 24.5 18.5C23.0164 18.5 21.7843 19.5834 21.5452 21H17V14.5V14V6H22C24.4812 6 26.5 8.0188 26.5 10.5V14.5C26.5 14.7761 26.7239 15 27 15H29.5C30 15 30 15.1626 30 15.25V16H28.5C27.6729 16 27 16.6729 27 17.5C27 18.3271 27.6729 19 28.5 19H30V20.25C30 20.605 29.7019 21 29.5 21ZM30 18H28.5C28.2244 18 28 17.7756 28 17.5C28 17.2244 28.2244 17 28.5 17H30V18Z" fill="#0080FC"/>
<path d="M22 8H19C18.7239 8 18.5 8.22388 18.5 8.5V14.5C18.5 14.7761 18.7239 15 19 15H24.5C24.7761 15 25 14.7761 25 14.5V11C25 9.3457 23.6543 8 22 8ZM24 14H19.5V9H22C23.1028 9 24 9.89722 24 11V14Z" fill="#0080FC"/>
<path d="M20 16H18.5C18.2239 16 18 16.2239 18 16.5C18 16.7761 18.2239 17 18.5 17H20C20.2761 17 20.5 16.7761 20.5 16.5C20.5 16.2239 20.2761 16 20 16Z" fill="#0080FC"/>
</svg>
