<svg width="32" height="32" viewBox="0 0 32 32" fill="none" xmlns="http://www.w3.org/2000/svg">
<path fill-rule="evenodd" clip-rule="evenodd" d="M22.0082 10.7791C22.0082 10.7604 21.9894 10.7229 21.9894 10.6854C21.9894 9.80431 21.6333 8.96073 20.9959 8.37959C20.7147 9.26067 20.0586 9.8793 19.2712 9.8793C18.2027 9.8793 17.3778 8.77326 17.3778 7.38603C17.3778 5.98006 18.2027 4.87402 19.2712 4.87402C20.2835 4.87402 21.0896 5.90507 21.1459 7.21732C21.9332 7.76096 22.5143 8.54831 22.7955 9.42938C23.208 9.09195 23.7329 8.86699 24.314 8.86699H25.495C26.1511 8.86699 26.676 9.41064 26.676 10.0668V12.3913C26.676 13.0474 26.1511 13.5911 25.495 13.5911H24.4077L26.4136 17.3966C29.263 16.9654 31.9812 19.1775 31.9812 22.2331C32 24.9139 29.8067 27.1072 27.1072 27.1072C22.6831 27.1072 20.5835 21.6895 23.7329 18.6901L22.8518 16.9842C22.2144 16.9842 21.577 16.9842 20.9584 16.9842C21.0896 17.584 21.2771 18.5401 21.4083 19.6086C21.7083 22.2894 21.5395 25.3638 19.2337 25.5325L12.6725 26.0011C12.6725 26.0011 12.6538 26.0011 12.635 26.0011C12.0164 26.0011 11.9789 25.0638 12.5975 25.0076L19.1588 24.5389C21.3521 24.389 20.3585 18.8213 19.9461 16.9842C16.478 16.9654 12.9162 16.9654 9.46689 17.2091C9.46689 17.2091 9.46689 17.2091 9.44815 17.2091C9.39191 17.2091 9.27943 17.2091 8.88576 17.0966L8.06092 18.5214C8.73579 19.1025 9.24194 19.8523 9.52313 20.6772H13.2537V18.4839C13.2537 18.1839 13.5161 17.959 13.816 17.9965L19.3087 18.7463C19.5712 18.7838 19.7586 19.0275 19.7211 19.3087L19.1588 23.3579C19.1213 23.5829 18.915 23.7703 18.6713 23.7703H17.0779H15.5032H13.7598H13.7411H9.52313C8.86701 25.72 7.04862 27.1072 4.89279 27.1072C2.19331 27.1072 0.0187378 24.9139 0.0187378 22.2331C0.0187378 19.3462 2.49325 17.1154 5.30521 17.3591L5.98007 16.2156C5.38019 16.0281 4.70532 15.8031 3.89923 15.5594C3.88048 15.5407 3.84299 15.5219 3.8055 15.5032C1.55594 14.2097 0.749845 13.3661 1.03104 12.5788C1.29349 11.8477 2.39952 11.604 4.74282 11.7539C6.29876 11.8477 7.72348 12.0351 7.87345 12.1289C10.7979 13.816 13.8535 13.6098 14.5846 13.5348C16.1593 11.8289 18.6151 11.0791 20.9209 11.7539L21.9707 11.4165C21.9707 11.3603 21.9707 11.2853 21.9707 11.229C21.9707 11.0791 21.9894 10.9291 22.0082 10.7791ZM16.6467 22.7768L17.0217 20.2648C17.0967 19.6086 18.0902 19.7586 17.9965 20.4147L17.6403 22.7768H18.2402L18.6901 19.6461L14.2472 19.0463V21.1833V22.7768H15.072L15.447 20.2648C15.522 19.6086 16.5155 19.7586 16.4218 20.4147L16.0656 22.7768H16.6467ZM23.0955 13.2349C22.758 13.0287 22.4581 12.7287 22.2706 12.3726L21.652 12.56L25.495 19.9086C25.7575 19.7211 26.0762 19.5899 26.3948 19.4962L25.7387 18.2402C25.72 18.2027 25.7012 18.1652 25.6825 18.1464L23.0955 13.2349ZM24.314 9.86055C23.5641 9.86055 22.9643 10.4792 22.9643 11.229C22.9643 11.7352 23.2267 12.1663 23.6391 12.4101C23.6766 12.4288 23.7329 12.4475 23.7704 12.485C23.9391 12.56 24.1265 12.5975 24.314 12.5975H25.495C25.5887 12.5975 25.6825 12.5038 25.6825 12.3913V10.0668C25.6825 9.95428 25.5887 9.86055 25.495 9.86055H24.314ZM24.7639 20.6584L24.2203 19.6086C22.0269 21.9894 23.6391 26.1136 27.1072 26.1136C29.2443 26.1136 31.0064 24.3702 31.0064 22.2331C31.0064 19.9648 29.0568 18.2214 26.901 18.3339L27.4821 19.4212C28.8694 19.6086 29.9379 20.7897 29.9379 22.2331C29.9379 23.7891 28.6819 25.0638 27.1072 25.0638C25.5513 25.0638 24.2765 23.7891 24.2765 22.2331C24.2765 21.652 24.464 21.1084 24.7639 20.6584ZM22.3269 15.9906L20.6022 12.6912C18.5964 12.1476 16.553 12.8225 15.2595 14.2472C15.2408 14.3034 15.1845 14.3597 15.1283 14.3972C14.7346 14.8658 14.4347 15.4095 14.2285 16.0093C16.3843 15.9719 18.5589 15.9719 20.6772 15.9906H22.3269ZM27.1072 20.396C26.0949 20.396 25.2701 21.2208 25.2701 22.2331C25.2701 23.2454 26.0949 24.0703 27.1072 24.0703C28.1195 24.0703 28.9443 23.2454 28.9443 22.2331C28.9443 21.2208 28.1195 20.396 27.1072 20.396ZM8.77328 22.0082C8.75453 21.6707 8.67955 21.4458 8.6608 21.2396C8.49208 20.5647 8.1359 19.9086 7.55477 19.3837L6.99238 20.3398C7.44229 20.8459 7.72348 21.502 7.72348 22.2331C7.72348 23.7891 6.44873 25.0638 4.89279 25.0638C3.33684 25.0638 2.06209 23.7891 2.06209 22.2331C2.06209 20.9584 2.90567 19.8898 4.0492 19.5337L4.74282 18.3339C2.68072 18.4276 0.993548 20.1148 0.993548 22.2331C0.993548 24.3702 2.7557 26.1136 4.89279 26.1136C7.3673 26.1136 8.86701 24.0515 8.77328 22.0082ZM9.74809 22.7768H13.2537V21.6895H9.74809C9.76683 21.8582 9.78558 22.0457 9.78558 22.2331C9.78558 22.4206 9.76683 22.6081 9.74809 22.7768ZM6.20503 19.7211L7.8922 16.8154C7.62975 16.7217 7.31106 16.628 6.93614 16.5155L5.24897 19.4212C5.60515 19.4774 5.92384 19.5712 6.20503 19.7211ZM8.75453 16.0281C8.75453 16.0281 8.77328 16.0281 8.79203 16.0468C9.11071 16.1406 9.35442 16.1968 9.44815 16.2156C10.6854 16.1406 11.9227 16.0843 13.1787 16.0468C13.3286 15.5219 13.5348 15.0345 13.7973 14.5846C12.4101 14.6221 9.91681 14.4347 7.46104 13.0474C7.14235 12.9912 6.03631 12.8412 4.87404 12.7662C2.7557 12.6163 2.13707 12.8412 1.9871 12.9162C2.06209 13.0662 2.45576 13.5911 4.25541 14.6221C5.00526 14.8658 5.94258 15.1658 6.82366 15.447H6.86115C7.57351 15.6719 8.24838 15.8781 8.75453 16.0281ZM4.89279 20.396C3.88048 20.396 3.05564 21.2208 3.05564 22.2331C3.05564 23.2454 3.88048 24.0703 4.89279 24.0703C5.90509 24.0703 6.72993 23.2454 6.72993 22.2331C6.72993 21.2208 5.90509 20.396 4.89279 20.396ZM19.2712 5.86758C18.8401 5.86758 18.3714 6.48621 18.3714 7.36729C18.3714 8.26711 18.8401 8.88574 19.2712 8.88574C19.6836 8.88574 20.1523 8.26711 20.1523 7.36729C20.1523 6.48621 19.6836 5.86758 19.2712 5.86758Z" fill="#0080FC"/>
</svg>
