<svg width="24" height="24" viewBox="0 0 24 24" fill="none" xmlns="http://www.w3.org/2000/svg">
<g clip-path="url(#clip0_1283_9398)">
<path d="M6.21039 8.13763H20.4219L17.5143 5.23003C17.105 4.82073 17.105 4.15724 17.5143 3.74794C17.9237 3.33852 18.5871 3.33864 18.9965 3.74794L23.693 8.4447C24.1023 8.854 24.1023 9.51749 23.693 9.92679L18.9965 14.6233C18.7918 14.828 18.5236 14.9303 18.2554 14.9303C17.9873 14.9303 17.7191 14.8279 17.5144 14.6233C17.1051 14.214 17.1051 13.5505 17.5144 13.1412L20.422 10.2336H6.2105C3.94183 10.2336 2.09608 12.0794 2.09608 14.348C2.09608 16.6167 3.94183 18.4625 6.2105 18.4625H14.8555C15.4344 18.4625 15.9035 18.9316 15.9035 19.5105C15.9035 20.0893 15.4344 20.5585 14.8555 20.5585H6.2105C2.78612 20.5585 9.03335e-05 17.7724 9.03335e-05 14.348C9.03335e-05 10.9237 2.78601 8.13763 6.21039 8.13763Z" fill="#0080FC"/>
</g>
<defs>
<clipPath id="clip0_1283_9398">
<rect width="24" height="24" fill="white" transform="matrix(-1 0 0 1 24 0)"/>
</clipPath>
</defs>
</svg>
