<svg width="16" height="16" viewBox="0 0 16 16" fill="none" xmlns="http://www.w3.org/2000/svg">
<path d="M7.34675 13H5.00008C4.58675 13 4.22008 12.9867 3.89341 12.94C2.14008 12.7467 1.66675 11.92 1.66675 9.66667V6.33333C1.66675 4.08 2.14008 3.25333 3.89341 3.06C4.22008 3.01333 4.58675 3 5.00008 3H7.30675" stroke="#0080FC" stroke-linecap="round" stroke-linejoin="round"/>
<path d="M10.0134 3H11.0001C11.4134 3 11.7801 3.01333 12.1068 3.06C13.8601 3.25333 14.3334 4.08 14.3334 6.33333V9.66667C14.3334 11.92 13.8601 12.7467 12.1068 12.94C11.7801 12.9867 11.4134 13 11.0001 13H10.0134" stroke="#0080FC" stroke-linecap="round" stroke-linejoin="round"/>
<path d="M10 1.3335V14.6668" stroke="#0080FC" stroke-linecap="round" stroke-linejoin="round"/>
<path d="M7.39632 7.99984H7.40231" stroke="#0080FC" stroke-width="1.33333" stroke-linecap="round" stroke-linejoin="round"/>
<path d="M4.72982 7.99984H4.73581" stroke="#0080FC" stroke-width="1.33333" stroke-linecap="round" stroke-linejoin="round"/>
</svg>
