<svg width="19" height="19" viewBox="0 0 19 19" fill="none" xmlns="http://www.w3.org/2000/svg">
<path d="M14.2815 10.7269C13.949 11.0515 13.759 11.5186 13.8065 12.0173C13.8778 12.8723 14.6615 13.4977 15.5165 13.4977H17.0207V14.4398C17.0207 16.0786 15.6828 17.4165 14.044 17.4165H4.95567C3.31692 17.4165 1.979 16.0786 1.979 14.4398V9.11193C1.979 7.47318 3.31692 6.13525 4.95567 6.13525H14.044C15.6828 6.13525 17.0207 7.47318 17.0207 9.11193V10.2519H15.4215C14.9782 10.2519 14.5744 10.4261 14.2815 10.7269Z" stroke="white" stroke-width="1.1875" stroke-linecap="round" stroke-linejoin="round"/>
<path d="M1.979 9.82429V6.20641C1.979 5.26433 2.55692 4.42513 3.43567 4.09263L9.7215 1.71763C10.7032 1.34555 11.7561 2.0739 11.7561 3.12682V6.13514" stroke="white" stroke-width="1.1875" stroke-linecap="round" stroke-linejoin="round"/>
<path d="M17.8589 11.0599V12.6908C17.8589 13.1262 17.5106 13.4824 17.0672 13.4983H15.5156C14.6606 13.4983 13.8768 12.8728 13.8056 12.0178C13.7581 11.5191 13.9481 11.052 14.2806 10.7274C14.5735 10.4266 14.9772 10.2524 15.4206 10.2524H17.0672C17.5106 10.2683 17.8589 10.6245 17.8589 11.0599Z" stroke="white" stroke-width="1.1875" stroke-linecap="round" stroke-linejoin="round"/>
<path d="M5.5415 9.5H11.0832" stroke="white" stroke-width="1.1875" stroke-linecap="round" stroke-linejoin="round"/>
</svg>
