<svg width="50" height="50" viewBox="0 0 50 50" fill="none" xmlns="http://www.w3.org/2000/svg">
<path d="M43.6875 33.5001C43.1875 39.0626 39.1667 42.7084 33.3334 42.7084H14.5834C8.83335 42.7084 4.16669 38.0418 4.16669 32.2917V17.7084C4.16669 12.0417 7.58335 8.08341 12.8959 7.41675C13.4375 7.33341 14 7.29175 14.5834 7.29175H33.3334C33.875 7.29175 34.3959 7.31258 34.8959 7.39591C39.875 7.97925 43.25 11.4584 43.6875 16.5001C43.75 17.1042 43.25 17.6042 42.6459 17.6042H39.4167C37.4167 17.6042 35.5625 18.3751 34.2292 19.7501C32.6459 21.2917 31.8542 23.4584 32.0417 25.6251C32.375 29.4168 35.7084 32.3959 39.6667 32.3959H42.6459C43.25 32.3959 43.75 32.8959 43.6875 33.5001Z" fill="#F97066"/>
<path d="M45.8333 22.8542V27.1459C45.8333 28.2917 44.9167 29.2292 43.75 29.2709H39.6667C37.4167 29.2709 35.3542 27.6251 35.1667 25.3751C35.0417 24.0626 35.5417 22.8334 36.4167 21.9792C37.1875 21.1876 38.25 20.7292 39.4167 20.7292H43.75C44.9167 20.7709 45.8333 21.7084 45.8333 22.8542Z" fill="#F97066"/>
</svg>
