<svg width="32" height="32" viewBox="0 0 32 32" fill="none" xmlns="http://www.w3.org/2000/svg">
<g clip-path="url(#clip0_1283_9601)">
<path d="M30.0309 13.223L24.7509 12.8156L20.8421 9.34038C20.2586 8.82085 19.5045 8.5337 18.7232 8.53345H12.2667C11.8423 8.53345 11.4354 8.70202 11.1353 9.00208C10.8352 9.30213 10.6667 9.7091 10.6667 10.1334V12.2668H2.13333C1.70899 12.2668 1.30202 12.4354 1.00196 12.7354C0.701904 13.0355 0.533333 13.4424 0.533333 13.8668V17.7484C0.371712 17.8413 0.237356 17.975 0.143745 18.1362C0.0501351 18.2974 0.000562104 18.4804 0 18.6668L0 19.7334C0 20.0163 0.112381 20.2877 0.312419 20.4877C0.512458 20.6877 0.783769 20.8001 1.06667 20.8001H3.248C3.37335 21.5454 3.75876 22.2222 4.33581 22.7103C4.91286 23.1984 5.6442 23.4663 6.4 23.4663C7.1558 23.4663 7.88714 23.1984 8.46419 22.7103C9.04124 22.2222 9.42665 21.5454 9.552 20.8001H10.8149C10.9078 20.9617 11.0416 21.0961 11.2028 21.1897C11.3639 21.2833 11.5469 21.3329 11.7333 21.3334H23.6533C23.873 21.9573 24.2808 22.4975 24.8205 22.8797C25.3603 23.2619 26.0053 23.4671 26.6667 23.4671C27.328 23.4671 27.9731 23.2619 28.5128 22.8797C29.0525 22.4975 29.4604 21.9573 29.68 21.3334H30.4C30.8243 21.3334 31.2313 21.1649 31.5314 20.8648C31.8314 20.5648 32 20.1578 32 19.7334V15.3505C31.9977 14.8138 31.7941 14.2975 31.4295 13.9036C31.0649 13.5097 30.5659 13.2668 30.0309 13.223ZM2.13333 13.3334H2.66667V13.8668C2.66667 14.0082 2.61048 14.1439 2.51046 14.2439C2.41044 14.3439 2.27478 14.4001 2.13333 14.4001H1.6V13.8668C1.6 13.7253 1.65619 13.5897 1.75621 13.4897C1.85623 13.3896 1.99188 13.3334 2.13333 13.3334ZM1.06667 18.6668H3.63307C3.44187 18.9964 3.31145 19.3577 3.248 19.7334H1.06667V18.6668ZM6.4 22.4001C5.97807 22.4001 5.56561 22.275 5.21478 22.0406C4.86396 21.8062 4.59052 21.473 4.42906 21.0832C4.26759 20.6934 4.22534 20.2644 4.30766 19.8506C4.38997 19.4368 4.59315 19.0566 4.89151 18.7583C5.18986 18.4599 5.56998 18.2568 5.98381 18.1744C6.39763 18.0921 6.82658 18.1344 7.21639 18.2958C7.60621 18.4573 7.93939 18.7307 8.1738 19.0816C8.40822 19.4324 8.53333 19.8448 8.53333 20.2668C8.53333 20.8326 8.30857 21.3752 7.90849 21.7753C7.50842 22.1754 6.9658 22.4001 6.4 22.4001ZM6.4 17.0668C5.77179 17.0663 5.15751 17.2519 4.63467 17.6001H1.6V15.4668H2.13333C2.55768 15.4668 2.96465 15.2982 3.2647 14.9982C3.56476 14.6981 3.73333 14.2911 3.73333 13.8668V13.3334H10.6667V19.7334H9.552C9.42546 18.9886 9.03972 18.3125 8.46295 17.8245C7.88618 17.3366 7.15549 17.0682 6.4 17.0668ZM30.9333 15.3505V15.4668H29.8667C29.7252 15.4668 29.5896 15.4106 29.4895 15.3106C29.3895 15.2106 29.3333 15.0749 29.3333 14.9334V14.2401L29.9483 14.2876C30.2156 14.3095 30.4651 14.4307 30.6475 14.6275C30.8298 14.8243 30.9318 15.0822 30.9333 15.3505ZM20.1365 10.1372L23.1312 12.8001H17.6V9.60011H18.7232C19.2442 9.59985 19.7472 9.79097 20.1365 10.1372ZM13.8667 9.60011H16.5333V12.8001H14.4C14.2586 12.8001 14.1229 12.7439 14.0229 12.6439C13.9229 12.5439 13.8667 12.4082 13.8667 12.2668V9.60011ZM23.4667 20.2668H11.7333V10.1334C11.7333 9.992 11.7895 9.85634 11.8895 9.75632C11.9896 9.6563 12.1252 9.60011 12.2667 9.60011H12.8V12.2668C12.8 12.6911 12.9686 13.0981 13.2686 13.3982C13.5687 13.6982 13.9757 13.8668 14.4 13.8668H24.5125L28.2667 14.1569V14.9334C28.2667 15.3578 28.4352 15.7648 28.7353 16.0648C29.0354 16.3649 29.4423 16.5334 29.8667 16.5334H30.9333V18.1334H29.0453C28.6138 17.6505 28.0457 17.3101 27.4163 17.1573C26.7869 17.0045 26.1259 17.0466 25.5209 17.2779C24.916 17.5093 24.3956 17.919 24.0287 18.4527C23.6619 18.9865 23.4659 19.6191 23.4667 20.2668ZM26.6667 22.4001C26.2447 22.4001 25.8323 22.275 25.4815 22.0406C25.1306 21.8062 24.8572 21.473 24.6957 21.0832C24.5343 20.6934 24.492 20.2644 24.5743 19.8506C24.6566 19.4368 24.8598 19.0566 25.1582 18.7583C25.4565 18.4599 25.8366 18.2568 26.2505 18.1744C26.6643 18.0921 27.0932 18.1344 27.4831 18.2958C27.8729 18.4573 28.2061 18.7307 28.4405 19.0816C28.6749 19.4324 28.8 19.8448 28.8 20.2668C28.8 20.8326 28.5752 21.3752 28.1752 21.7753C27.7751 22.1754 27.2325 22.4001 26.6667 22.4001ZM30.4 20.2668H29.8667C29.8657 19.9032 29.8026 19.5424 29.68 19.2001H30.9333V19.7334C30.9333 19.8749 30.8771 20.0106 30.7771 20.1106C30.6771 20.2106 30.5415 20.2668 30.4 20.2668Z" fill="#0080FC"/>
</g>
<defs>
<clipPath id="clip0_1283_9601">
<rect width="32" height="32" fill="white"/>
</clipPath>
</defs>
</svg>
