<svg width="24" height="24" viewBox="0 0 24 24" fill="none" xmlns="http://www.w3.org/2000/svg">
<g clip-path="url(#clip0_1283_9396)">
<path d="M17.7896 8.13763H3.57811L6.48572 5.23003C6.89502 4.82073 6.89502 4.15724 6.48572 3.74794C6.0763 3.33852 5.41292 3.33864 5.0035 3.74794L0.306975 8.4447C-0.102325 8.854 -0.102325 9.51749 0.306975 9.92679L5.0035 14.6233C5.20821 14.828 5.47638 14.9303 5.74455 14.9303C6.01272 14.9303 6.28089 14.8279 6.4856 14.6233C6.8949 14.214 6.8949 13.5505 6.4856 13.1412L3.578 10.2336H17.7895C20.0582 10.2336 21.9039 12.0794 21.9039 14.348C21.9039 16.6167 20.0582 18.4625 17.7895 18.4625H9.14448C8.56563 18.4625 8.09648 18.9316 8.09648 19.5105C8.09648 20.0893 8.56563 20.5585 9.14448 20.5585H17.7895C21.2139 20.5585 23.9999 17.7724 23.9999 14.348C23.9999 10.9237 21.214 8.13763 17.7896 8.13763Z" fill="#0080FC"/>
</g>
<defs>
<clipPath id="clip0_1283_9396">
<rect width="24" height="24" fill="white"/>
</clipPath>
</defs>
</svg>
