<svg width="32" height="32" viewBox="0 0 32 32" fill="none" xmlns="http://www.w3.org/2000/svg">
<path d="M30.0581 15.3461L25.4169 13.7359L23.4031 8.66481C23.214 7.76049 22.4167 7.10962 21.4881 7.10962H2.33205C1.25324 7.10962 0.375366 7.98743 0.375366 9.06631V20.5591C0.375366 21.6379 1.25318 22.5157 2.33205 22.5157H3.83455C4.25099 23.8881 5.52705 24.8904 7.03355 24.8904C8.54005 24.8904 9.81612 23.8881 10.2326 22.5157H20.2036C20.62 23.8881 21.896 24.8904 23.4026 24.8904C24.9093 24.8904 26.1854 23.8881 26.6018 22.5157H29.6962C30.7595 22.5157 31.6247 21.6506 31.6247 20.5872C31.6247 20.4824 31.6247 17.1032 31.6247 17.2404C31.6247 16.3091 30.9686 15.5192 30.0581 15.3461ZM7.03355 23.9138C5.72849 23.9138 4.6668 22.8522 4.6668 21.5471C4.6668 20.242 5.72843 19.1803 7.03355 19.1803C8.33868 19.1803 9.4003 20.2419 9.4003 21.5471C9.4003 22.8521 8.33862 23.9138 7.03355 23.9138ZM23.4026 23.9138C22.0975 23.9138 21.0358 22.8522 21.0358 21.5471C21.0358 20.242 22.0975 19.1803 23.4026 19.1803C24.7076 19.1803 25.7696 20.2419 25.7696 21.5471C25.7696 22.8521 24.7076 23.9138 23.4026 23.9138ZM29.6962 21.5392H26.7457C26.7413 19.6994 25.2436 18.2037 23.4026 18.2037C21.5618 18.2037 20.064 19.6994 20.0597 21.5392H10.3764C10.3721 19.6994 8.8743 18.2037 7.03355 18.2037C5.1928 18.2037 3.69499 19.6994 3.69068 21.5392H2.33205C1.79155 21.5392 1.35193 21.0996 1.35193 20.5591V9.06631C1.35193 8.52581 1.79155 8.08618 2.33205 8.08618H21.4881C21.9619 8.08618 22.3674 8.42449 22.4522 8.89062C22.458 8.92231 22.4671 8.95331 22.4789 8.98337L24.592 14.3041C24.6442 14.4359 24.7515 14.5387 24.8857 14.5851L29.7742 16.2812C30.2859 16.4612 30.6482 16.6451 30.6482 17.2403V17.2611H28.5986C28.3289 17.2611 28.1103 17.4797 28.1103 17.7493V19.9246C28.1103 20.1942 28.3289 20.4129 28.5986 20.4129H30.6482V20.5871C30.6482 21.1122 30.2212 21.5392 29.6962 21.5392ZM30.6482 19.4364H29.0868V18.2376H30.6482V19.4364Z" fill="#0080FC"/>
<path d="M20.2524 9.22945C20.1733 9.0547 19.9992 8.94238 19.8075 8.94238H15.003C14.7334 8.94238 14.5148 9.16101 14.5148 9.43063V14.1238C14.5148 14.3934 14.7334 14.6121 15.003 14.6121H21.9316C22.2859 14.6121 22.5228 14.2453 22.3765 13.9226L20.2524 9.22945ZM15.4913 13.6356V9.91895H19.4926L21.1746 13.6356H15.4913Z" fill="#0080FC"/>
</svg>
