<svg width="24" height="24" viewBox="0 0 24 24" fill="none" xmlns="http://www.w3.org/2000/svg">
<g clip-path="url(#clip0_1283_9055)">
<path d="M11.9999 5.12222C11.5307 5.12222 11.1504 4.74192 11.1504 4.2727V0.849516C11.1504 0.380297 11.5307 0 11.9999 0C12.4691 0 12.8494 0.380297 12.8494 0.849516V4.27275C12.8494 4.74192 12.4691 5.12222 11.9999 5.12222Z" fill="black"/>
<path opacity="0.52" d="M11.9999 24.0002C11.5307 24.0002 11.1504 23.6199 11.1504 23.1507V19.7274C11.1504 19.2582 11.5307 18.8779 11.9999 18.8779C12.4691 18.8779 12.8494 19.2582 12.8494 19.7274V23.1507C12.8494 23.6199 12.4691 24.0002 11.9999 24.0002Z" fill="black"/>
<path opacity="0.58" d="M16.2139 23.173C15.879 23.173 15.5615 22.9735 15.4271 22.6444L14.1335 19.475C13.9562 19.0406 14.1647 18.5448 14.599 18.3675C15.0331 18.19 15.5292 18.3986 15.7065 18.8329L17.0001 22.0023C17.1775 22.4366 16.969 22.9325 16.5347 23.1098C16.4296 23.1528 16.3209 23.173 16.2139 23.173Z" fill="black"/>
<path opacity="0.94" d="M14.9197 5.69522C14.8128 5.69522 14.7041 5.67497 14.599 5.63198C14.1646 5.4548 13.9562 4.95886 14.1335 4.52447L15.4272 1.35511C15.6044 0.920718 16.1003 0.711702 16.5347 0.889686C16.9691 1.06687 17.1775 1.56281 17.0001 1.9972L15.7065 5.16656C15.5721 5.49581 15.2547 5.69522 14.9197 5.69522Z" fill="black"/>
<path opacity="0.46" d="M7.78594 23.173C7.67902 23.173 7.57032 23.1528 7.46523 23.1098C7.03084 22.9326 6.82243 22.4367 6.99976 22.0023L8.29337 18.8329C8.47069 18.3985 8.96649 18.19 9.40088 18.3675C9.83527 18.5447 10.0437 19.0407 9.86635 19.4751L8.57274 22.6444C8.43835 22.9736 8.12091 23.173 7.78594 23.173Z" fill="black"/>
<path opacity="0.36" d="M1.67669 17.0636C1.34172 17.0636 1.02429 16.8643 0.889895 16.535C0.712567 16.1006 0.920973 15.6047 1.35532 15.4275L4.52463 14.1338C4.95897 13.956 5.45486 14.1646 5.63219 14.5992C5.80952 15.0336 5.60111 15.5295 5.16677 15.7067L1.99746 17.0003C1.89236 17.0433 1.78361 17.0636 1.67669 17.0636Z" fill="black"/>
<path opacity="0.82" d="M19.1547 9.92973C18.8198 9.92973 18.5023 9.73046 18.3679 9.40112C18.1906 8.96673 18.399 8.47084 18.8333 8.2936L22.0027 6.99995C22.4369 6.82224 22.9329 7.03079 23.1102 7.46537C23.2875 7.89976 23.0791 8.39565 22.6448 8.57288L19.4755 9.86654C19.3704 9.90948 19.2616 9.92973 19.1547 9.92973Z" fill="black"/>
<path opacity="0.24" d="M4.8454 9.92959C4.73848 9.92959 4.62978 9.90934 4.52464 9.86636L1.35532 8.5727C0.920932 8.39551 0.712573 7.89958 0.889901 7.46519C1.06718 7.0308 1.56293 6.82244 1.99746 6.99976L5.16678 8.29342C5.60117 8.47061 5.80953 8.96655 5.6322 9.40094C5.49781 9.73014 5.18032 9.92959 4.8454 9.92959Z" fill="black"/>
<path opacity="0.7" d="M22.3234 17.0633C22.2165 17.0633 22.1078 17.043 22.0027 17L18.8333 15.7064C18.399 15.5292 18.1906 15.0332 18.3679 14.5989C18.5453 14.1648 19.041 13.9562 19.4755 14.1335L22.6448 15.4271C23.0792 15.6043 23.2876 16.1003 23.1102 16.5346C22.9758 16.8638 22.6584 17.0633 22.3234 17.0633Z" fill="black"/>
<path opacity="0.88" d="M17.4637 7.38569C17.2463 7.38569 17.029 7.30272 16.8631 7.13683C16.5313 6.80514 16.5313 6.26725 16.863 5.93556L19.2836 3.51498C19.6153 3.18316 20.1532 3.18316 20.4849 3.51498C20.8167 3.84667 20.8167 4.38456 20.485 4.71625L18.0644 7.13683C17.8986 7.30272 17.6811 7.38569 17.4637 7.38569Z" fill="black"/>
<path opacity="0.4" d="M4.11559 20.7343C3.89819 20.7343 3.68083 20.6514 3.51494 20.4855C3.1832 20.1538 3.18316 19.6159 3.51489 19.2842L5.93542 16.8636C6.26716 16.5318 6.80505 16.5318 7.13678 16.8636C7.46852 17.1953 7.46856 17.7332 7.13683 18.0649L4.7163 20.4855C4.55041 20.6514 4.33295 20.7343 4.11559 20.7343Z" fill="black"/>
<path opacity="0.18" d="M6.53614 7.38558C6.31869 7.38558 6.10138 7.30261 5.93544 7.13672L3.51491 4.71614C3.18317 4.38446 3.18317 3.84657 3.51496 3.51488C3.84664 3.18319 4.38453 3.18319 4.71631 3.51488L7.13685 5.93546C7.46858 6.26714 7.46858 6.80504 7.1368 7.13672C6.97095 7.30261 6.7535 7.38558 6.53614 7.38558Z" fill="black"/>
<path opacity="0.64" d="M19.8843 20.7342C19.6668 20.7342 19.4495 20.6512 19.2836 20.4854L16.863 18.0648C16.5313 17.7331 16.5313 17.1952 16.8631 16.8635C17.1948 16.5318 17.7327 16.5318 18.0644 16.8635L20.485 19.2841C20.8167 19.6158 20.8167 20.1537 20.4849 20.4854C20.3191 20.6512 20.1017 20.7342 19.8843 20.7342Z" fill="black"/>
<path opacity="0.3" d="M4.27261 12.8494H0.849516C0.380344 12.8494 0 12.4691 0 11.9999C0 11.5307 0.380344 11.1504 0.849516 11.1504H4.27261C4.74178 11.1504 5.12213 11.5307 5.12213 11.9999C5.12213 12.4691 4.74178 12.8494 4.27261 12.8494Z" fill="black"/>
<path opacity="0.76" d="M23.1506 12.8494H19.7274C19.2583 12.8494 18.8779 12.4691 18.8779 11.9999C18.8779 11.5307 19.2583 11.1504 19.7274 11.1504H23.1506C23.6198 11.1504 24.0001 11.5307 24.0001 11.9999C24.0001 12.4691 23.6199 12.8494 23.1506 12.8494Z" fill="black"/>
</g>
<defs>
<clipPath id="clip0_1283_9055">
<rect width="24" height="24" fill="white"/>
</clipPath>
</defs>
</svg>
