<svg width="32" height="32" viewBox="0 0 32 32" fill="none" xmlns="http://www.w3.org/2000/svg">
<path fill-rule="evenodd" clip-rule="evenodd" d="M6.06663 25.9999H3.99996C3.11596 25.9999 2.26795 25.6486 1.64262 25.0239C1.01795 24.3986 0.666626 23.5506 0.666626 22.6666C0.666626 18.5679 0.666626 10.7653 0.666626 6.66659C0.666626 5.78259 1.01795 4.93459 1.64262 4.30925C2.26795 3.68459 3.11596 3.33325 3.99996 3.33325H17.3333C18.2173 3.33325 19.0653 3.68459 19.6906 4.30925C20.3153 4.93459 20.6666 5.78259 20.6666 6.66659V8.66659H25.0186C26.2813 8.66659 27.4353 9.37992 28 10.5093C28.976 12.4619 30.632 15.7733 31.122 16.7533C31.2613 17.0313 31.3333 17.3373 31.3333 17.6479V23.9999C31.3333 25.1046 30.438 25.9999 29.3333 25.9999H28.6C28.2906 27.5206 26.9446 28.6666 25.3333 28.6666C23.722 28.6666 22.376 27.5206 22.0666 25.9999H12.6C12.2906 27.5206 10.9446 28.6666 9.33329 28.6666C7.72196 28.6666 6.37596 27.5206 6.06663 25.9999ZM9.33329 23.3333C10.4373 23.3333 11.3333 24.2293 11.3333 25.3333C11.3333 26.4373 10.4373 27.3333 9.33329 27.3333C8.22929 27.3333 7.33329 26.4373 7.33329 25.3333C7.33329 24.2293 8.22929 23.3333 9.33329 23.3333ZM25.3333 23.3333C26.4373 23.3333 27.3333 24.2293 27.3333 25.3333C27.3333 26.4373 26.4373 27.3333 25.3333 27.3333C24.2293 27.3333 23.3333 26.4373 23.3333 25.3333C23.3333 24.2293 24.2293 23.3333 25.3333 23.3333ZM12.6 24.6666H19.3333V20.6666H1.99996V22.6666C1.99996 23.1973 2.21062 23.7059 2.58596 24.0806C2.96062 24.4559 3.46929 24.6666 3.99996 24.6666H6.06663C6.37596 23.1459 7.72196 21.9999 9.33329 21.9999C10.9446 21.9999 12.2906 23.1459 12.6 24.6666ZM28.6 24.6666H29.3333C29.7013 24.6666 30 24.3679 30 23.9999V20.6666H25.3333C24.4493 20.6666 23.6013 20.3152 22.976 19.6906C22.3513 19.0652 22 18.2173 22 17.3333V13.3333C22 12.2286 22.8953 11.3333 24 11.3333H26.9213L26.8073 11.1053C26.4686 10.4279 25.776 9.99992 25.0186 9.99992H20.6666V24.6666H22.0666C22.376 23.1459 23.722 21.9999 25.3333 21.9999C26.9446 21.9999 28.2906 23.1459 28.6 24.6666ZM27.588 12.6666H24C23.632 12.6666 23.3333 12.9653 23.3333 13.3333V17.3333C23.3333 17.8639 23.544 18.3726 23.9193 18.7473C24.294 19.1226 24.8026 19.3333 25.3333 19.3333H30V17.6479C30 17.5446 29.976 17.4426 29.9293 17.3499L27.588 12.6666ZM19.3333 19.3333H1.99996V6.66659C1.99996 6.13592 2.21062 5.62725 2.58596 5.25258C2.96062 4.87725 3.46929 4.66659 3.99996 4.66659H17.3333C17.864 4.66659 18.3726 4.87725 18.7473 5.25258C19.1226 5.62725 19.3333 6.13592 19.3333 6.66659V19.3333Z" fill="#0080FC"/>
</svg>
