<svg width="20" height="20" viewBox="0 0 20 20" fill="none" xmlns="http://www.w3.org/2000/svg">
<g clip-path="url(#clip0_1283_9374)">
<path d="M10 20C4.48609 20 0 15.5139 0 10C0 4.48609 4.48609 0 10 0C15.5139 0 20 4.48609 20 10C20 15.5139 15.5139 20 10 20ZM10 1.25C5.17516 1.25 1.25 5.17516 1.25 10C1.25 14.8248 5.17516 18.75 10 18.75C14.8248 18.75 18.75 14.8248 18.75 10C18.75 5.17516 14.8248 1.25 10 1.25ZM15 10C15 9.65453 14.7205 9.375 14.375 9.375H5.625C5.27953 9.375 5 9.65453 5 10C5 10.3455 5.27953 10.625 5.625 10.625H14.375C14.7205 10.625 15 10.3455 15 10Z" fill="#EE6A5F"/>
</g>
<defs>
<clipPath id="clip0_1283_9374">
<rect width="20" height="20" fill="white"/>
</clipPath>
</defs>
</svg>
