<svg width="32" height="32" viewBox="0 0 32 32" fill="none" xmlns="http://www.w3.org/2000/svg">
<g clip-path="url(#clip0_1283_9643)">
<path d="M0.56001 23.3149H21.59C21.86 23.3149 22.075 23.0999 22.075 22.8299C22.075 22.5599 21.86 22.3449 21.59 22.3449H1.00001C0.910009 20.9799 0.90001 16.6149 4.02501 14.2249C4.24001 14.0649 4.28001 13.7599 4.11501 13.5449C3.95501 13.3299 3.65001 13.2899 3.43501 13.4549C-0.73499 16.6399 0.0400096 22.6399 0.0750096 22.8949C0.11001 23.1349 0.31501 23.3149 0.56001 23.3149Z" fill="#0080FC"/>
<path d="M3.29501 14.3348H14.09C14.665 14.3348 15.135 13.8648 15.135 13.2898V11.9398C15.135 11.3648 14.665 10.8948 14.09 10.8948H3.29501C2.72001 10.8948 2.25001 11.3648 2.25001 11.9398V13.2898C2.25001 13.8698 2.72001 14.3348 3.29501 14.3348ZM14.09 11.8698C14.13 11.8698 14.165 11.9048 14.165 11.9448V13.2948C14.165 13.3348 14.13 13.3698 14.09 13.3698H3.29501C3.25501 13.3698 3.22001 13.3348 3.22001 13.2948V11.9448C3.22001 11.9048 3.25501 11.8698 3.29501 11.8698H14.09Z" fill="#0080FC"/>
<path d="M26.08 16.595C26.1 16.595 26.115 16.595 26.135 16.59C26.4 16.56 26.59 16.32 26.56 16.055C26.235 13.23 25.37 10.215 24.055 7.33995C23.945 7.09495 23.655 6.98995 23.415 7.09995C23.17 7.20995 23.065 7.49995 23.175 7.73995C24.45 10.525 25.285 13.435 25.6 16.16C25.63 16.415 25.84 16.595 26.08 16.595Z" fill="#0080FC"/>
<path d="M16.68 20.0749C17.32 20.0749 17.965 19.8849 18.56 19.5099C20.23 18.4599 22.865 15.4799 21.755 7.30987C21.72 7.04487 21.475 6.85987 21.21 6.89487C20.945 6.92987 20.76 7.17487 20.795 7.43987C21.87 15.3599 19.23 17.9449 18.045 18.6899C17.275 19.1749 16.44 19.2399 15.69 18.8749C14.81 18.4449 14.195 17.4749 14.085 16.3449C14.005 15.5249 14.17 14.6099 14.49 14.1199C14.635 13.8949 14.57 13.5949 14.345 13.4499C14.12 13.3049 13.82 13.3699 13.675 13.5949C13.14 14.4199 13.04 15.6449 13.12 16.4449C13.265 17.9049 14.085 19.1699 15.265 19.7499C15.715 19.9649 16.195 20.0749 16.68 20.0749Z" fill="#0080FC"/>
<path d="M27.055 27.6198C29.695 27.6198 31.845 25.4698 31.845 22.8298C31.845 21.7248 31.46 20.6498 30.765 19.7998C30.595 19.5948 30.29 19.5648 30.085 19.7298C29.88 19.8998 29.85 20.2048 30.015 20.4098C30.57 21.0898 30.875 21.9448 30.875 22.8248C30.875 24.9298 29.16 26.6448 27.055 26.6448C24.95 26.6448 23.235 24.9298 23.235 22.8248C23.235 22.7148 23.24 22.6148 23.25 22.5048C23.275 22.2398 23.075 21.9998 22.81 21.9798C22.535 21.9598 22.31 22.1548 22.285 22.4198C22.275 22.5598 22.265 22.6898 22.265 22.8248C22.26 25.4698 24.41 27.6198 27.055 27.6198Z" fill="#0080FC"/>
<path d="M27.055 25.2649C28.4 25.2649 29.49 24.1699 29.49 22.8299C29.49 21.7549 28.8 20.8199 27.77 20.5049C27.515 20.4249 27.245 20.5699 27.165 20.8249C27.085 21.0799 27.23 21.3499 27.485 21.4299C28.105 21.6199 28.52 22.1849 28.52 22.8299C28.52 23.6399 27.86 24.2999 27.05 24.2999C26.24 24.2999 25.58 23.6399 25.58 22.8299C25.58 22.4949 25.695 22.1749 25.9 21.9199C26.07 21.7099 26.04 21.4049 25.83 21.2399C25.62 21.0699 25.315 21.0999 25.15 21.3099C24.805 21.7349 24.61 22.2749 24.61 22.8299C24.615 24.1749 25.71 25.2649 27.055 25.2649Z" fill="#0080FC"/>
<path d="M7.37498 27.62C10.015 27.62 12.165 25.47 12.165 22.83C12.165 22.56 11.95 22.345 11.68 22.345C11.41 22.345 11.195 22.56 11.195 22.83C11.195 24.935 9.47998 26.65 7.37498 26.65C5.26998 26.65 3.55498 24.935 3.55498 22.83C3.55498 22.56 3.33998 22.345 3.06998 22.345C2.79998 22.345 2.58498 22.56 2.58498 22.83C2.58498 25.47 4.73498 27.62 7.37498 27.62Z" fill="#0080FC"/>
<path d="M7.375 25.265C8.72 25.265 9.81 24.17 9.81 22.83C9.81 22.56 9.595 22.345 9.325 22.345C9.055 22.345 8.84 22.56 8.84 22.83C8.84 23.64 8.18 24.3 7.37 24.3C6.56 24.3 5.9 23.64 5.9 22.83C5.9 22.56 5.685 22.345 5.415 22.345C5.145 22.345 4.93 22.56 4.93 22.83C4.94 24.175 6.03 25.265 7.375 25.265Z" fill="#0080FC"/>
<path d="M24.735 8.52488H26.08C26.35 8.52488 26.565 8.30988 26.565 8.03988V4.86488C26.565 4.59488 26.35 4.37988 26.08 4.37988H24.735C23.64 4.37988 22.745 5.27488 22.745 6.36988V6.53488C22.745 7.62988 23.635 8.52488 24.735 8.52488ZM25.595 7.55488H24.73C24.165 7.55488 23.71 7.09488 23.71 6.53488V6.36988C23.71 5.80488 24.17 5.34988 24.73 5.34988H25.595V7.55488Z" fill="#0080FC"/>
<path d="M18.625 7.85492H23.23C23.5 7.85492 23.715 7.63992 23.715 7.36992V5.52992C23.715 5.25992 23.5 5.04492 23.23 5.04492H18.625C18.355 5.04492 18.14 5.25992 18.14 5.52992V7.36992C18.14 7.63992 18.355 7.85492 18.625 7.85492ZM22.745 6.88992H19.11V6.01992H22.745V6.88992Z" fill="#0080FC"/>
<path d="M21.59 23.3149C21.64 23.3149 21.685 23.3099 21.735 23.2949L31.66 20.2249C31.915 20.1449 32.06 19.8749 31.98 19.6199C31.53 18.1699 30.545 16.9849 29.205 16.2749C27.865 15.5649 26.325 15.4249 24.88 15.8699C21.89 16.7949 20.21 19.9799 21.135 22.9749C21.175 23.0999 21.26 23.1999 21.37 23.2599C21.435 23.2949 21.515 23.3149 21.59 23.3149ZM30.885 19.4499L21.935 22.2199C21.47 19.8849 22.84 17.5199 25.16 16.7999C26.36 16.4299 27.635 16.5449 28.75 17.1349C29.72 17.6399 30.465 18.4549 30.885 19.4499Z" fill="#0080FC"/>
<path d="M13.325 23.3149C13.36 23.3149 13.395 23.3099 13.43 23.3049C13.69 23.2449 13.855 22.9899 13.8 22.7249C13.02 19.2049 11.3 17.8049 9.98998 17.2499C8.17998 16.4849 5.86998 16.7799 3.81498 18.0449C1.16998 19.6699 0.144978 22.5449 0.0999783 22.6699C0.00997831 22.9249 0.144978 23.1999 0.399978 23.2849C0.649978 23.3749 0.929978 23.2399 1.01998 22.9899C1.02998 22.9649 1.98498 20.3149 4.32498 18.8699C6.11498 17.7699 8.08998 17.4949 9.61498 18.1399C11.21 18.8149 12.3 20.4299 12.855 22.9299C12.9 23.1599 13.1 23.3149 13.325 23.3149Z" fill="#0080FC"/>
</g>
<defs>
<clipPath id="clip0_1283_9643">
<rect width="32" height="32" fill="white" transform="matrix(-1 0 0 1 32 0)"/>
</clipPath>
</defs>
</svg>
