<svg width="16" height="16" viewBox="0 0 16 16" fill="none" xmlns="http://www.w3.org/2000/svg">
<path d="M7.92009 9.99357C7.79342 9.99357 7.66675 9.94691 7.56675 9.84691L5.86009 8.14024C5.66675 7.94691 5.66675 7.62691 5.86009 7.43357C6.05342 7.24024 6.37342 7.24024 6.56675 7.43357L7.92009 8.78691L9.27342 7.43357C9.46675 7.24024 9.78676 7.24024 9.98009 7.43357C10.1734 7.62691 10.1734 7.94691 9.98009 8.14024L8.27342 9.84691C8.17342 9.94691 8.04675 9.99357 7.92009 9.99357Z" fill="#0080FC"/>
<path d="M7.91992 9.9465C7.64659 9.9465 7.41992 9.71984 7.41992 9.4465V2.6665C7.41992 2.39317 7.64659 2.1665 7.91992 2.1665C8.19326 2.1665 8.41992 2.39317 8.41992 2.6665V9.4465C8.41992 9.71984 8.19326 9.9465 7.91992 9.9465Z" fill="#0080FC"/>
<path d="M8.00008 13.9535C4.56675 13.9535 2.16675 11.5535 2.16675 8.12012C2.16675 7.84678 2.39341 7.62012 2.66675 7.62012C2.94008 7.62012 3.16675 7.84678 3.16675 8.12012C3.16675 10.9668 5.15341 12.9535 8.00008 12.9535C10.8467 12.9535 12.8334 10.9668 12.8334 8.12012C12.8334 7.84678 13.0601 7.62012 13.3334 7.62012C13.6067 7.62012 13.8334 7.84678 13.8334 8.12012C13.8334 11.5535 11.4334 13.9535 8.00008 13.9535Z" fill="#0080FC"/>
</svg>
