<svg width="32" height="32" viewBox="0 0 32 32" fill="none" xmlns="http://www.w3.org/2000/svg">
<g clip-path="url(#clip0_1283_9626)">
<path d="M29.05 25.6501C27.8073 25.6501 26.8 24.6428 26.8 23.4001C26.8 22.1575 27.8073 21.1501 29.05 21.1501C30.2926 21.1501 31.3 22.1575 31.3 23.4001C31.3 24.6428 30.2926 25.6501 29.05 25.6501Z" stroke="#0080FC" stroke-miterlimit="10" stroke-linecap="round" stroke-linejoin="round"/>
<path d="M27.9 16.8501C27.9 16.7501 27.9 16.7001 27.85 16.6001C27.85 16.5501 27.85 16.5501 27.85 16.5001C27.85 16.4001 27.8 16.3001 27.8 16.2001C27.8 16.1001 27.75 16.0501 27.75 15.9501V15.9001C27.75 15.8001 27.7 15.7501 27.7 15.6501C27.7 15.6001 27.7 15.6001 27.7 15.5501C27.7 15.5001 27.65 15.4001 27.65 15.3501C27.6 15.1501 27.5 14.9501 27.45 14.7501C27.4 14.6001 27.35 14.4501 27.3 14.3501" stroke="#0080FC" stroke-miterlimit="10" stroke-linecap="round" stroke-linejoin="round"/>
<path d="M27.75 15.9502L25.95 15.6002L23.65 10.5002L23.9 8.9502" stroke="#0080FC" stroke-miterlimit="10" stroke-linecap="round" stroke-linejoin="round"/>
<path d="M6.40002 22.4003L4.15002 21.6003L2.45003 21.0003C1.45003 20.6503 0.700024 19.7003 0.650024 18.6003L0.500025 16.4503C0.450025 16.0003 0.550025 15.5503 0.750025 15.1003L3.45003 9.35029C3.80003 8.60029 4.45002 8.05029 5.25002 7.85029L10.6 6.50029C11 6.40029 11.45 6.40029 11.85 6.50029L15.25 7.25029C15.4 7.25029 15.5 7.30029 15.65 7.30029L21.8 7.70029C22.05 7.75029 22.25 7.80029 22.5 7.95029C22.95 8.20029 23.4 8.55029 23.85 9.05029C25 10.3003 26.15 12.2003 27.05 14.0503C27.1 14.2003 27.2 14.3003 27.25 14.4503C27.3 14.6003 27.35 14.7003 27.4 14.8503C27.5 15.0503 27.55 15.2503 27.6 15.4503C27.6 15.5003 27.65 15.6003 27.65 15.6503C27.65 15.7003 27.65 15.7003 27.65 15.7503C27.7 15.8503 27.7 15.9003 27.7 16.0003V16.0503C27.7 16.1503 27.75 16.2503 27.75 16.3003C27.75 16.4003 27.8 16.5003 27.8 16.6003V16.7003C27.8 16.8003 27.85 16.8503 27.85 16.9503C27.9 17.2503 27.9 17.5503 27.9 17.8503V18.0003V21.5003" stroke="#0080FC" stroke-miterlimit="10" stroke-linecap="round" stroke-linejoin="round"/>
<path d="M11.15 22.6501H26.95" stroke="#0080FC" stroke-miterlimit="10" stroke-linecap="round" stroke-linejoin="round"/>
<path d="M30.45 21.6502H30.9C31.25 21.6502 31.5 21.4002 31.5 21.0502C31.5 20.3002 31.1 19.6002 30.45 19.2502L27.95 18.0002" stroke="#0080FC" stroke-miterlimit="10" stroke-linecap="round" stroke-linejoin="round"/>
<path d="M12.1 20.1501L10.9 16.4001L8.80002 13.9001C8.40002 13.4501 8.35003 12.8001 8.60003 12.3001L9.50002 10.4501C9.75002 9.9501 10.25 9.6001 10.85 9.6001H21C21.65 9.6001 22.2 10.0001 22.4 10.6001L23.8 14.7501C23.85 14.9001 23.9 15.0501 23.9 15.2501V19.7501C23.9 20.6001 23.25 21.2501 22.4 21.2501H13.55C12.9 21.1501 12.3 20.7501 12.1 20.1501Z" stroke="#0080FC" stroke-miterlimit="10" stroke-linecap="round" stroke-linejoin="round"/>
<path d="M10.9 16.5001H3.85003C3.45003 16.5001 3.05002 16.3501 2.75002 16.0501C2.45002 15.7501 2.05002 15.6001 1.65002 15.6001H0.600025" stroke="#0080FC" stroke-miterlimit="10" stroke-linecap="round" stroke-linejoin="round"/>
<path d="M16.6 9.55029V21.1503" stroke="#0080FC" stroke-miterlimit="10" stroke-linecap="round" stroke-linejoin="round"/>
<path d="M6.25002 23.1502C6.25002 24.5002 7.35003 25.6002 8.70003 25.6002C10.05 25.6002 11.15 24.5002 11.15 23.1502C11.15 21.8002 10.05 20.7002 8.70003 20.7002C7.95003 20.7002 7.30003 21.0502 6.85003 21.5502C6.65003 21.8002 6.45003 22.1002 6.35003 22.4002C6.30003 22.6502 6.25002 22.9002 6.25002 23.1502Z" stroke="#0080FC" stroke-miterlimit="10" stroke-linecap="round" stroke-linejoin="round"/>
<path d="M22.55 7.8501C22.55 7.8501 22.9 9.2001 21.6 9.7001" stroke="#0080FC" stroke-miterlimit="10" stroke-linecap="round" stroke-linejoin="round"/>
<path d="M16.6 21.1501H20.45V18.1501C20.45 17.3001 19.8 16.6501 18.95 16.6501H16.6" stroke="#0080FC" stroke-miterlimit="10" stroke-linecap="round" stroke-linejoin="round"/>
</g>
<defs>
<clipPath id="clip0_1283_9626">
<rect width="32" height="32" fill="white" transform="matrix(-1 0 0 1 32 0)"/>
</clipPath>
</defs>
</svg>
