<svg width="42" height="42" viewBox="0 0 42 42" fill="none" xmlns="http://www.w3.org/2000/svg">
<g clip-path="url(#clip0_1283_9452)">
<path d="M9.02301 10.3364C8.5702 10.3364 8.2027 10.7039 8.2027 11.1567C8.2027 11.6096 8.5702 11.9771 9.02301 11.9771C9.47582 11.9771 9.84332 11.6096 9.84332 11.1567C9.84332 10.7039 9.47582 10.3364 9.02301 10.3364Z" fill="#0080FC"/>
<path d="M38.6306 17.3521L37.4437 14.9782C37.024 14.1389 36.1806 13.6176 35.2425 13.6176H28.3817V7.87565C28.3817 6.51877 27.2778 5.41479 25.9208 5.41479H2.46086C1.10389 5.41479 0 6.51869 0 7.87565V29.2029C0 30.5598 1.10389 31.6637 2.46086 31.6637H4.92171C4.92171 32.9232 5.3979 34.0734 6.17892 34.9448H0.820312C0.367254 34.9448 0 35.3122 0 35.7651C0 36.2181 0.367254 36.5854 0.820312 36.5854H41.178C41.6311 36.5854 41.9984 36.2181 41.9984 35.7651C41.9984 35.3122 41.6311 34.9448 41.178 34.9448H39.1005C39.8816 34.0733 40.3577 32.9232 40.3577 31.6637C40.3577 31.617 40.3555 31.5705 40.3542 31.5238C41.3108 31.1861 41.9983 30.2735 41.9983 29.2029V24.6683C41.9983 23.7111 42.1879 24.6048 38.6306 17.3521ZM37.3899 18.5392L39.8508 23.4609H31.6628V18.5392H37.3899ZM1.64054 25.1015H3.28109V26.742H1.64054V25.1015ZM9.84334 34.9448C8.03414 34.9448 6.56225 33.4728 6.56225 31.6637C6.56225 31.4403 6.5844 31.2204 6.6287 31.0065C6.93722 29.4861 8.28918 28.3826 9.84334 28.3826C11.3975 28.3826 12.7495 29.486 13.058 31.0065C13.0582 31.0077 13.0585 31.0088 13.0587 31.0099C13.1024 31.2203 13.1244 31.4403 13.1244 31.6637C13.1244 33.4729 11.6525 34.9448 9.84334 34.9448ZM9.84334 26.742C7.74162 26.742 5.88681 28.0884 5.203 30.0231H2.46086C2.00854 30.0231 1.64054 29.6551 1.64054 29.2028V28.3825H4.1014C4.55446 28.3825 4.92171 28.0151 4.92171 27.5622V24.2811C4.92171 23.8281 4.55446 23.4608 4.1014 23.4608H1.64054V7.87565C1.64054 7.42333 2.00854 7.05534 2.46086 7.05534H25.9208C26.3731 7.05534 26.7411 7.42333 26.7411 7.87565C26.7411 8.48588 26.7411 28.056 26.7411 30.0232H14.4833C13.7982 28.0874 11.9442 26.742 9.84334 26.742ZM13.5078 34.9448C14.2889 34.0733 14.765 32.9232 14.765 31.6637C15.3948 31.6637 30.2462 31.6637 30.5143 31.6637C30.5143 32.9232 30.9905 34.0734 31.7715 34.9448H13.5078ZM35.436 34.9448C33.6268 34.9448 32.1549 33.4728 32.1549 31.6637C32.1549 31.4403 32.1771 31.2204 32.2214 31.0065C32.5299 29.4861 33.8819 28.3826 35.436 28.3826C36.9902 28.3826 38.3422 29.486 38.6507 31.0065C38.6509 31.0077 38.6512 31.0088 38.6514 31.0099C38.695 31.2203 38.7171 31.4403 38.7171 31.6637C38.7172 33.4729 37.2452 34.9448 35.436 34.9448ZM40.3577 29.2029C40.3577 29.4757 40.2233 29.7171 40.0178 29.8664C39.2901 28.0151 37.4797 26.7421 35.436 26.7421C33.3343 26.7421 31.4795 28.0885 30.7957 30.0232H28.3816V15.2581H35.2424C35.5551 15.2581 35.8363 15.432 35.9762 15.7118L36.5696 16.8987H30.8425C30.3895 16.8987 30.0222 17.266 30.0222 17.719V24.2812C30.0222 24.7342 30.3895 25.1016 30.8425 25.1016H40.3577V29.2029Z" fill="#0080FC"/>
<path d="M22.6397 10.3364H12.3042C11.8511 10.3364 11.4839 10.7038 11.4839 11.1567C11.4839 11.6097 11.8511 11.9771 12.3042 11.9771H22.6397C23.0928 11.9771 23.46 11.6097 23.46 11.1567C23.46 10.7038 23.0927 10.3364 22.6397 10.3364Z" fill="#0080FC"/>
<path d="M22.6397 13.6174H15.5853C15.1322 13.6174 14.765 13.9848 14.765 14.4377C14.765 14.8907 15.1322 15.2581 15.5853 15.2581H22.6397C23.0928 15.2581 23.46 14.8907 23.46 14.4377C23.46 13.9848 23.0927 13.6174 22.6397 13.6174Z" fill="#0080FC"/>
<path d="M35.436 30.0232C34.5314 30.0232 33.7955 30.7592 33.7955 31.6637C33.7955 32.5684 34.5315 33.3043 35.436 33.3043C36.3407 33.3043 37.0766 32.5683 37.0766 31.6637C37.0766 30.7591 36.3407 30.0232 35.436 30.0232Z" fill="#0080FC"/>
<path d="M9.84336 30.0232C8.93872 30.0232 8.20282 30.7592 8.20282 31.6637C8.20282 32.5684 8.9388 33.3043 9.84336 33.3043C10.748 33.3043 11.4839 32.5683 11.4839 31.6637C11.4839 30.7591 10.748 30.0232 9.84336 30.0232Z" fill="#0080FC"/>
</g>
<defs>
<clipPath id="clip0_1283_9452">
<rect width="42" height="42" fill="white"/>
</clipPath>
</defs>
</svg>
