<svg width="16" height="16" viewBox="0 0 16 16" fill="none" xmlns="http://www.w3.org/2000/svg">
<path d="M8 14.6667C7.8 14.6667 7.66667 14.6 7.53333 14.4667L4.2 11.1333C3.93333 10.8667 3.93333 10.4667 4.2 10.2C4.46667 9.93333 4.86667 9.93333 5.13333 10.2L8 13.0667L10.8667 10.2C11.1333 9.93333 11.5333 9.93333 11.8 10.2C12.0667 10.4667 12.0667 10.8667 11.8 11.1333L8.46667 14.4667C8.33333 14.6 8.2 14.6667 8 14.6667Z" fill="#667085"/>
<path d="M4.66667 6.00016C4.46667 6.00016 4.33333 5.9335 4.2 5.80016C3.93333 5.5335 3.93333 5.1335 4.2 4.86683L7.53333 1.5335C7.8 1.26683 8.2 1.26683 8.46667 1.5335L11.8 4.86683C12.0667 5.1335 12.0667 5.5335 11.8 5.80016C11.5333 6.06683 11.1333 6.06683 10.8667 5.80016L8 2.9335L5.13333 5.80016C5 5.9335 4.86667 6.00016 4.66667 6.00016Z" fill="#667085"/>
</svg>
