<svg width="50" height="50" viewBox="0 0 50 50" fill="none" xmlns="http://www.w3.org/2000/svg">
<path d="M9.375 26.5625C5.9288 26.5625 3.125 23.7595 3.125 20.3125C3.125 16.8655 5.9288 14.0625 9.375 14.0625C12.8212 14.0625 15.625 16.8655 15.625 20.3125C15.625 23.7595 12.8212 26.5625 9.375 26.5625ZM12.1407 27.6093C10.3592 28.2974 8.39081 28.2974 6.60934 27.6093C6.15616 27.4368 5.64041 27.4994 5.23453 27.7496C2.93732 29.2038 1.5625 31.6711 1.5625 34.375V40.625C1.5625 41.4841 2.26593 42.1875 3.125 42.1875H10.9375V34.375C10.9375 31.9534 11.5784 29.5944 12.7342 27.5314C12.5313 27.4994 12.3283 27.5314 12.1407 27.6093ZM40.625 26.5625C44.0712 26.5625 46.875 23.7595 46.875 20.3125C46.875 16.8655 44.0712 14.0625 40.625 14.0625C37.1788 14.0625 34.375 16.8655 34.375 20.3125C34.375 23.7595 37.1788 26.5625 40.625 26.5625ZM44.7655 27.7496C44.3596 27.4994 43.8438 27.4368 43.3907 27.6093C41.6092 28.2974 39.6408 28.2974 37.8593 27.6093C37.6717 27.5314 37.4687 27.4994 37.2658 27.5314C38.4216 29.5944 39.0625 31.9534 39.0625 34.375V42.1875H46.875C47.7341 42.1875 48.4375 41.4841 48.4375 40.625V34.375C48.4375 31.6711 47.0627 29.2038 44.7655 27.7496ZM25 23.4375C20.6924 23.4375 17.1875 19.9326 17.1875 15.625C17.1875 11.3174 20.6924 7.8125 25 7.8125C29.3076 7.8125 32.8125 11.3174 32.8125 15.625C32.8125 19.9326 29.3076 23.4375 25 23.4375ZM35.9375 34.375C35.9375 30.8899 34.2659 27.6093 31.4529 25.563C30.9845 25.2182 30.3596 25.1724 29.8439 25.4211C28.7971 25.9537 27.6878 26.2817 26.5625 26.4374V34.375C26.5625 35.2341 25.8591 35.9375 25 35.9375C24.1409 35.9375 23.4375 35.2341 23.4375 34.375V26.4374C22.3122 26.2817 21.2029 25.9537 20.1561 25.4211C19.6404 25.1724 19.0155 25.2182 18.5471 25.563C15.7341 27.6093 14.0625 30.8899 14.0625 34.375V42.1875H35.9375V34.375Z" fill="#F97066"/>
</svg>
