<svg width="32" height="32" viewBox="0 0 32 32" fill="none" xmlns="http://www.w3.org/2000/svg">
<g clip-path="url(#clip0_1283_9575)">
<path d="M23.15 22.2H11.15C10.85 22.2 10.65 22 10.65 21.7C10.65 21.4 10.85 21.2 11.15 21.2H23.15C23.45 21.2 23.65 21.4 23.65 21.7C23.65 22 23.45 22.2 23.15 22.2Z" fill="#0080FC"/>
<path d="M29.4 22.1999C29.15 22.1999 28.9 21.9999 28.9 21.6999C28.9 21.3999 29.1 21.1999 29.4 21.1999L30.55 21.1499C30.7 21.1499 30.95 21.0499 31 20.8999C31 20.8499 31 20.8499 31.05 20.7999C31.1 20.7499 31.05 20.7499 31.05 20.6999V16.0499C31.05 15.2999 30.8 14.5999 30.3 14.0499L25.2 8.5999C24.65 7.9999 23.85 7.6499 23 7.6499H2.5C1.65 7.6499 1 8.2999 1 9.1499V20.1999C1 20.7499 1.45 21.1999 2 21.1999H4.95C5.25 21.1999 5.45 21.3999 5.45 21.6999C5.45 21.9999 5.25 22.1999 4.95 22.1999H2C0.9 22.1999 0 21.2999 0 20.1999V9.1499C0 7.7499 1.1 6.6499 2.5 6.6499H23C24.1 6.6499 25.2 7.0999 25.9 7.8999L30.95 13.3499C31.6 14.0499 32 15.0499 32 16.0499V20.6999C32 20.7999 32 20.9999 31.9 21.1499C31.75 21.6999 31.25 22.0499 30.6 22.1499L29.4 22.1999Z" fill="#0080FC"/>
<path d="M27 14.5499H20.75C20.2 14.5499 19.75 14.0999 19.75 13.5499V9.6499C19.75 9.0999 20.2 8.6499 20.75 8.6499H23C23.5 8.6499 24.05 8.8999 24.45 9.2999L27.75 12.8499C28 13.0999 28.1 13.4999 27.95 13.8999C27.8 14.2999 27.4 14.5499 27 14.5499ZM20.75 9.6499V13.5499H27L27.05 13.4999L23.75 9.9999C23.55 9.7999 23.25 9.6499 23 9.6499H20.75Z" fill="#0080FC"/>
<path d="M15.95 14.5499H3C2.45 14.5499 2 14.0999 2 13.5499V9.6499C2 9.0999 2.45 8.6499 3 8.6499H17.55C17.9 8.6499 18.2 8.7999 18.4 9.0999C18.6 9.3999 18.6 9.7499 18.5 10.0499L16.9 13.9499C16.9 13.9999 16.85 13.9999 16.85 14.0499C16.5 14.4999 16.15 14.5499 15.95 14.5499ZM3 9.6499V13.5499H15.9C15.9 13.5499 15.9 13.5499 15.95 13.4999L17.55 9.6499H3Z" fill="#0080FC"/>
<path d="M26.25 25.2999C24.25 25.2999 22.65 23.6999 22.65 21.6999C22.65 19.6999 24.25 18.0999 26.25 18.0999C28.25 18.0999 29.85 19.6999 29.85 21.6999C29.85 23.6999 28.25 25.2999 26.25 25.2999ZM26.25 19.0999C24.8 19.0999 23.65 20.2499 23.65 21.6999C23.65 23.1499 24.8 24.2999 26.25 24.2999C27.7 24.2999 28.85 23.1499 28.85 21.6999C28.85 20.2499 27.7 19.0999 26.25 19.0999Z" fill="#0080FC"/>
<path d="M8.04995 25.2999C6.04995 25.2999 4.44995 23.6999 4.44995 21.6999C4.44995 19.6999 6.04995 18.0999 8.04995 18.0999C10.05 18.0999 11.65 19.6999 11.65 21.6999C11.65 23.6999 10.05 25.2999 8.04995 25.2999ZM8.04995 19.0999C6.59995 19.0999 5.44995 20.2499 5.44995 21.6999C5.44995 23.1499 6.59995 24.2999 8.04995 24.2999C9.49995 24.2999 10.65 23.1499 10.65 21.6999C10.65 20.2499 9.49995 19.0999 8.04995 19.0999Z" fill="#0080FC"/>
<path d="M22.6 16.25H21.35C21.05 16.25 20.85 16.05 20.85 15.75C20.85 15.45 21.05 15.25 21.35 15.25H22.6C22.9 15.25 23.1 15.45 23.1 15.75C23.1 16.05 22.9 16.25 22.6 16.25Z" fill="#0080FC"/>
<path d="M16.2 17.15C15.9 17.15 15.7 16.95 15.7 16.65V15.75C15.7 15.45 15.9 15.25 16.2 15.25C16.5 15.25 16.7 15.45 16.7 15.75V16.65C16.7 16.95 16.5 17.15 16.2 17.15Z" fill="#0080FC"/>
</g>
<defs>
<clipPath id="clip0_1283_9575">
<rect width="32" height="32" fill="white"/>
</clipPath>
</defs>
</svg>
