<svg width="19" height="19" viewBox="0 0 19 19" fill="none" xmlns="http://www.w3.org/2000/svg">
<path d="M11.8752 1.5835V9.50016C11.8752 10.371 11.1627 11.0835 10.2918 11.0835H1.5835V4.75016C1.5835 3.00058 3.00058 1.5835 4.75016 1.5835H11.8752Z" stroke="white" stroke-width="1.1875" stroke-linecap="round" stroke-linejoin="round"/>
<path d="M17.4168 11.0835V13.4585C17.4168 14.7727 16.356 15.8335 15.0418 15.8335H14.2502C14.2502 14.9627 13.5377 14.2502 12.6668 14.2502C11.796 14.2502 11.0835 14.9627 11.0835 15.8335H7.91683C7.91683 14.9627 7.20433 14.2502 6.3335 14.2502C5.46266 14.2502 4.75016 14.9627 4.75016 15.8335H3.9585C2.64433 15.8335 1.5835 14.7727 1.5835 13.4585V11.0835H10.2918C11.1627 11.0835 11.8752 10.371 11.8752 9.50016V3.9585H13.3318C13.9018 3.9585 14.4243 4.26725 14.7093 4.75809L16.0631 7.12516H15.0418C14.6064 7.12516 14.2502 7.48141 14.2502 7.91683V10.2918C14.2502 10.7272 14.6064 11.0835 15.0418 11.0835H17.4168Z" stroke="white" stroke-width="1.1875" stroke-linecap="round" stroke-linejoin="round"/>
<path d="M6.33333 17.4167C7.20778 17.4167 7.91667 16.7078 7.91667 15.8333C7.91667 14.9589 7.20778 14.25 6.33333 14.25C5.45888 14.25 4.75 14.9589 4.75 15.8333C4.75 16.7078 5.45888 17.4167 6.33333 17.4167Z" stroke="white" stroke-width="1.1875" stroke-linecap="round" stroke-linejoin="round"/>
<path d="M12.6668 17.4167C13.5413 17.4167 14.2502 16.7078 14.2502 15.8333C14.2502 14.9589 13.5413 14.25 12.6668 14.25C11.7924 14.25 11.0835 14.9589 11.0835 15.8333C11.0835 16.7078 11.7924 17.4167 12.6668 17.4167Z" stroke="white" stroke-width="1.1875" stroke-linecap="round" stroke-linejoin="round"/>
<path d="M17.4167 9.5V11.0833H15.0417C14.6062 11.0833 14.25 10.7271 14.25 10.2917V7.91667C14.25 7.48125 14.6062 7.125 15.0417 7.125H16.0629L17.4167 9.5Z" stroke="white" stroke-width="1.1875" stroke-linecap="round" stroke-linejoin="round"/>
</svg>
